<?xml version="1.0" encoding="UTF-8" standalone="no"?>
<svg width="100px" height="100px" viewBox="0 0 100 100" version="1.1" xmlns="http://www.w3.org/2000/svg" xmlns:xlink="http://www.w3.org/1999/xlink" xmlns:sketch="http://www.bohemiancoding.com/sketch/ns">
    <!-- Generator: Sketch 3.5.2 (25235) - http://www.bohemiancoding.com/sketch -->
    <title>Avatar2</title>
    <desc>Created with Sketch.</desc>
    <defs>
        <circle id="path-1" cx="50" cy="50" r="50"></circle>
    </defs>
    <g id="Page-1" stroke="none" stroke-width="1" fill="none" fill-rule="evenodd" sketch:type="MSPage">
        <g id="Avatar2" sketch:type="MSLayerGroup">
            <mask id="mask-2" sketch:name="Mask Copy 2" fill="white">
                <use xlink:href="#path-1"></use>
            </mask>
            <use id="Mask-Copy-2" fill="#BBCCD6" sketch:type="MSShapeGroup" xlink:href="#path-1"></use>
            <g id="Group-10-Copy" mask="url(#mask-2)" sketch:type="MSShapeGroup">
                <g transform="translate(14.000000, 14.000000)">
                    <path d="M6.8074795,131.137452 L6.8074795,65.0862296 C6.8074795,61.7846276 8.48061236,60.9459056 10.1069145,60.1327609 L26.5966393,51.8755588 C26.5966393,54.8425245 27.899384,57.5036285 29.9620631,59.3185504 L36.4928157,65.8578112 L43.0225041,59.3185504 C45.0841188,57.5036285 46.3857992,54.8425245 46.3857992,51.8755588 L62.878717,60.1327609 C64.5018261,60.9459056 66.178152,61.7846276 66.178152,65.0862296 L66.178152,131.137452 L56.2819756,131.137452 L56.2819756,124.532117 L16.7036559,124.532117 L16.7036559,131.137452 L6.8074795,131.137452 Z" id="Fill-317" fill="#77888F"></path>
                    <path d="M29.4967363,58.8819248 C31.8223058,61.210524 34.1649047,63.5274002 36.4926029,65.8570652 L43.0233556,59.3188702 C45.083906,57.5028825 46.3855863,54.8417785 46.3855863,51.8758785 L62.8785041,60.1330806 C64.5016133,60.9451596 66.1779391,61.7849473 66.1779391,65.0854836 L66.1779391,131.137772 L56.2817627,131.137772 L56.2817627,95.0439513 L24.8306966,63.5519118 L29.4967363,58.8819248 Z" id="Fill-318" fill="#647278"></path>
                    <path d="M24.8312287,40.1992057 L44.3958141,66.3733002 C38.1354022,69.80492 30.1326758,68.8617574 24.8312287,63.5523381 C18.3909444,57.1036636 18.3909444,46.6478802 24.8312287,40.1992057" id="Fill-319" fill="#77888F"></path>
                    <path d="M45.3698925,37.9569299 C46.3554656,38.5899678 47.2910151,39.3370379 48.1541899,40.1992057 C54.5944742,46.6478802 54.5944742,57.1036636 48.1541899,63.5523381 C47.0121597,64.6958562 45.7434737,65.6347559 44.396027,66.3733002 L30.6927283,52.6521493 L45.3698925,37.9569299 Z" id="Fill-320" fill="#647278"></path>
                    <path d="M26.5967458,41.9693674 L46.3859056,41.9693674 L46.3859056,51.8763048 C46.3859056,51.8763048 43.5686138,58.7704504 43.0226105,59.3182307 L36.4929222,65.8574915 L29.9621695,59.3182307 C28.0197602,57.3743566 26.5967458,54.8422048 26.5967458,51.8763048 L26.5967458,41.9693674 Z" id="Fill-321" fill="#9E5031"></path>
                    <path d="M26.5967458,41.9693674 L46.3859056,41.9693674 L46.3859056,51.8763048 C46.3859056,54.8422048 45.0842253,57.5033088 43.0226105,59.3182307 L40.1872251,62.1583757 L26.5967458,48.5501912 L26.5967458,41.9693674 Z" id="Fill-322" fill="#804026"></path>
                    <path d="M52.9825406,22.1530415 C51.1625296,22.1530415 49.6852342,23.6311958 49.6852342,25.4557092 C49.6852342,27.2802226 51.1625296,28.7583769 52.9825406,28.7583769 C54.8046802,28.7583769 56.2819756,27.2802226 56.2819756,25.4557092 C56.2819756,23.6311958 54.8046802,22.1530415 52.9825406,22.1530415" id="Fill-323" fill="#9E5031"></path>
                    <path d="M52.9825406,23.8037359 C52.0725351,23.8037359 51.3349517,24.5433459 51.3349517,25.4556027 C51.3349517,26.3678594 52.0725351,27.1074694 52.9825406,27.1074694 C53.8946747,27.1074694 54.6322581,26.3678594 54.6322581,25.4556027 C54.6322581,24.5433459 53.8946747,23.8037359 52.9825406,23.8037359" id="Fill-324" fill="#804026"></path>
                    <path d="M20.0004301,22.1530415 C18.1782905,22.1530415 16.7031237,23.6311958 16.7031237,25.4557092 C16.7031237,27.2802226 18.1782905,28.7583769 20.0004301,28.7583769 C21.8225697,28.7583769 23.2998651,27.2802226 23.2998651,25.4557092 C23.2998651,23.6311958 21.8225697,22.1530415 20.0004301,22.1530415" id="Fill-325" fill="#9E5031"></path>
                    <path d="M20.0004301,23.8037359 C19.0904246,23.8037359 18.3507126,24.5433459 18.3507126,25.4556027 C18.3507126,26.3678594 19.0904246,27.1074694 20.0004301,27.1074694 C20.9125642,27.1074694 21.6501476,26.3678594 21.6501476,25.4556027 C21.6501476,24.5433459 20.9125642,23.8037359 20.0004301,23.8037359" id="Fill-326" fill="#804026"></path>
                    <path d="M36.4927093,2.33788794 C45.564027,2.33788794 52.9824341,9.76809096 52.9824341,18.8501607 L52.9824341,35.3634992 C52.9824341,44.4445032 45.560834,51.8757719 36.4927093,51.8757719 C27.4213917,51.8757719 20.0008558,44.4445032 20.0008558,35.3634992 L20.0008558,18.8501607 C20.0008558,9.76809096 27.4213917,2.33788794 36.4927093,2.33788794" id="Fill-327" fill="#9E5031"></path>
                    <path d="M32.2832688,47.9105458 C32.4014099,47.471469 32.8526874,47.2114332 33.2901287,47.3297282 C33.7275699,47.4469574 33.9872674,47.8977572 33.871255,48.336834 L33.0187235,51.5265353 C32.9005825,51.9645464 32.4493049,52.2256479 32.0118637,52.107353 C31.5722938,51.989058 31.311532,51.539324 31.429673,51.1002471 L32.2832688,47.9105458 Z M29.1849929,46.3929599 C29.411696,45.999709 29.9129973,45.8643625 30.3078651,46.091361 C30.69954,46.3194252 30.8347104,46.8203138 30.6080073,47.2146304 L28.9582898,50.0750241 C28.7305223,50.4672092 28.2270924,50.6025557 27.8354175,50.3755572 C27.4426783,50.1485588 27.3085723,49.6466044 27.5352754,49.2522879 L29.1849929,46.3929599 Z M26.5826966,44.1229753 C26.9041254,43.8011277 27.4235203,43.8011277 27.7428205,44.1229753 C28.0642493,44.4437572 28.0642493,44.9648945 27.7428205,45.2856763 L25.4129936,47.6206699 C25.0915648,47.9425174 24.5711055,47.9425174 24.2496767,47.6206699 C23.9282479,47.299888 23.9282479,46.7798164 24.2496767,46.4590346 L26.5826966,44.1229753 Z M24.6562522,41.257253 C25.0489914,41.0302546 25.5524214,41.1634696 25.7791245,41.5577862 C26.0058276,41.9499713 25.8685285,42.4540571 25.4768537,42.6821213 L22.6212459,44.3307908 C22.229571,44.558855 21.7261411,44.4235085 21.4983736,44.0302576 C21.2716705,43.6380725 21.4068409,43.1339867 21.7985158,42.908054 L24.6562522,41.257253 Z M23.536573,37.9886884 C23.9729499,37.8703934 24.4252918,38.1304292 24.5434328,38.569506 C24.6583809,39.0085828 24.3986834,39.4593826 23.9612422,39.5766118 L20.7756909,40.4313197 C20.336121,40.5496146 19.8869721,40.2895788 19.7688311,39.850502 C19.6528187,39.4114252 19.9125161,38.9606254 20.3499574,38.8433962 L23.536573,37.9886884 Z M23.2992265,34.5410827 C23.7536971,34.5410827 24.119828,34.9087562 24.119828,35.3627532 C24.119828,35.8178158 23.7536971,36.1854894 23.2992265,36.1854894 L20.0008558,36.1854894 C19.5463853,36.1854894 19.1802544,35.8178158 19.1802544,35.3627532 C19.1802544,34.9087562 19.5463853,34.5410827 20.0008558,34.5410827 L23.2992265,34.5410827 Z M24.6562522,13.0028723 C25.0489914,13.2298707 25.5524214,13.0945242 25.7791245,12.7023391 C26.0058276,12.3090882 25.8685285,11.8050025 25.4768537,11.578004 L22.6212459,9.92720302 C22.229571,9.70020457 21.7261411,9.83555106 21.4983736,10.2288019 C21.2716705,10.6220528 21.4068409,11.1250728 21.7985158,11.3520713 L24.6562522,13.0028723 Z M23.536573,16.2714369 C23.9729499,16.3897319 24.4252918,16.1286304 24.5434328,15.6895535 C24.6583809,15.2504767 24.3986834,14.799677 23.9612422,14.6835134 L20.7756909,13.8288056 C20.336121,13.7105106 19.8869721,13.9705464 19.7688311,14.4096233 C19.6528187,14.8487001 19.9125161,15.2994998 20.3499574,15.4167291 L23.536573,16.2714369 Z M23.2992265,19.7190426 C23.7536971,19.7190426 24.119828,19.3503033 24.119828,18.8952407 C24.119828,18.4423095 23.7536971,18.0746359 23.2992265,18.0746359 L20.0008558,18.0746359 C19.5463853,18.0746359 19.1802544,18.4423095 19.1802544,18.8963064 C19.1802544,19.3503033 19.5463853,19.7190426 20.0008558,19.7190426 L23.2992265,19.7190426 Z M36.4927093,11.5854641 L28.3292685,11.5854641 C27.419263,11.5854641 26.6412349,11.4053573 25.9962486,10.7605964 L23.6664217,8.34141098 C23.0203711,7.69665011 23.0203711,6.65117834 23.6664217,6.00748318 C27.0786761,2.58865196 31.6659552,0.687406665 36.4927093,0.687406665 L39.7900157,6.13643536 L36.4927093,11.5854641 Z M35.6699792,48.5744897 C35.6699792,48.1204927 36.0393031,47.7506878 36.4927093,47.7506878 L37.3175681,50.2252907 L36.4927093,52.6988278 C36.0393031,52.6988278 35.6699792,52.3300886 35.6699792,51.8760916 L35.6699792,48.5744897 Z" id="Fill-328" fill="#424F54"></path>
                    <path d="M32.5456271,21.6052612 C32.8478979,21.9430946 32.8202253,22.4631662 32.4817671,22.7658308 C32.1443732,23.0684954 31.623914,23.039721 31.3216432,22.7008218 C30.5340361,21.8205367 29.4281932,21.3271082 28.2467826,21.3271082 C27.0643076,21.3271082 25.9584647,21.8205367 25.171922,22.7008218 C24.8696512,23.039721 24.3491919,23.0684954 24.0107337,22.7658308 C23.6733399,22.4631662 23.6446029,21.9430946 23.9468737,21.6052612 C25.0442019,20.3796827 26.6034511,19.6763072 28.2467826,19.6763072 C29.8890498,19.6763072 31.4514919,20.3796827 32.5456271,21.6052612" id="Fill-329" fill="#424F54"></path>
                    <path d="M39.1137379,48.3366209 C38.9955969,47.897544 39.2552943,47.4467443 39.6948642,47.3284493 C40.1323054,47.2112201 40.583583,47.4712558 40.6995954,47.9103327 L41.5531912,51.1010997 C41.6713322,51.5401766 41.4105704,51.9909763 40.9741935,52.1082056 C40.5346237,52.2265005 40.0854748,51.9643333 39.9673337,51.5263222 L39.1137379,48.3366209 Z M42.3780499,47.2144172 C42.1502825,46.8211664 42.2854529,46.3181463 42.6781921,46.0922136 C43.069867,45.8641494 43.5732969,45.9994959 43.8,46.3927467 L45.4475888,49.2520747 C45.674292,49.6463913 45.5401859,50.1494114 45.1474467,50.3753441 C44.7557718,50.6023425 44.2544706,50.4680618 44.0245744,50.0748109 L42.3780499,47.2144172 Z M45.2400437,45.2865289 C44.9207436,44.9657471 44.9207436,44.443544 45.2400437,44.1227622 C45.5614726,43.8009146 46.0808675,43.8009146 46.4022963,44.1227622 L48.7331875,46.4588214 C49.0546164,46.7796033 49.0546164,47.2996749 48.7331875,47.6204567 C48.4138874,47.9423043 47.8944924,47.9423043 47.5730636,47.6204567 L45.2400437,45.2865289 Z M47.5060106,42.6819081 C47.1143357,42.4538439 46.9791653,41.9508239 47.2058684,41.557573 C47.4336359,41.1632565 47.9370658,41.0289757 48.3287407,41.2559741 L51.1843485,42.9078409 C51.5760233,43.1348393 51.7111937,43.6378594 51.4844906,44.0311102 C51.2567232,44.4243611 50.7564862,44.5586418 50.363747,44.3327091 L47.5060106,42.6819081 Z M49.0237507,39.5763987 C48.5841808,39.4581037 48.3244833,39.007304 48.4426244,38.5682272 C48.5607654,38.1312818 49.0099143,37.8701803 49.4494842,37.9884752 L52.6350355,38.843183 C53.0724768,38.9604123 53.3321742,39.411212 53.2140332,39.8502889 C53.0958921,40.2893657 52.6467432,40.5494015 52.209302,40.4311065 L49.0237507,39.5763987 Z M49.6857664,36.1852762 C49.2312958,36.1852762 48.8630363,35.8176027 48.8630363,35.3636057 C48.8630363,34.9085431 49.2312958,34.5408695 49.6857664,34.5408695 L52.9830727,34.5408695 C53.436479,34.5408695 53.8047385,34.9096088 53.8047385,35.3636057 C53.8047385,35.8176027 53.436479,36.1852762 52.9830727,36.1852762 L49.6857664,36.1852762 Z M47.5060106,11.5788566 C47.1143357,11.8069208 46.9791653,12.3099408 47.2058684,12.7021259 C47.4336359,13.0964425 47.9370658,13.2296576 48.3287407,13.0026591 L51.1843485,11.3518581 C51.5760233,11.1248597 51.7111937,10.6218396 51.4844906,10.2296545 C51.2567232,9.83533792 50.7564862,9.69999142 50.363747,9.9280556 L47.5060106,11.5788566 Z M49.0237507,14.6833003 C48.5841808,14.8015952 48.3244833,15.2513293 48.4426244,15.6904061 C48.5607654,16.1294829 49.0099143,16.3895187 49.4494842,16.2712238 L52.6329069,15.416516 C53.0724768,15.2992867 53.3321742,14.8484869 53.2140332,14.4083444 C53.0958921,13.9703333 52.6467432,13.7102975 52.209302,13.8285925 L49.0237507,14.6833003 Z M49.6857664,18.0744228 C49.2312958,18.0744228 48.8630363,18.4420963 48.8630363,18.897159 C48.8630363,19.3500902 49.2312958,19.7188294 49.6857664,19.7188294 L52.9830727,19.7188294 C53.436479,19.7188294 53.8047385,19.3500902 53.8047385,18.8950275 C53.8047385,18.4420963 53.436479,18.0744228 52.9830727,18.0744228 L49.6857664,18.0744228 Z M36.4922836,11.5852509 L36.4922836,0.687193521 C41.134908,0.687193521 45.776468,2.45948664 49.3196355,6.00727004 C49.9646218,6.6509652 49.9646218,7.69643696 49.3196355,8.34226356 L46.9866156,10.7603833 C46.343758,11.4051442 45.5657299,11.5852509 44.6557244,11.5852509 L36.4922836,11.5852509 Z M36.4922836,47.7504746 C36.9467541,47.7504746 37.312885,48.1202796 37.312885,48.5742765 L37.312885,51.8758785 C37.312885,52.3298754 36.9467541,52.6986147 36.4922836,52.6996804 L36.4922836,47.7504746 Z M49.037587,21.6051546 C49.3409222,21.9440537 49.3100565,22.4630596 48.9715983,22.7657242 C48.6342045,23.0694546 48.1158739,23.0396144 47.8136031,22.7007153 C47.0238673,21.8204302 45.9180244,21.3270016 44.7387425,21.3270016 C43.5573319,21.3270016 42.4504246,21.8204302 41.6617532,22.7007153 C41.3616111,23.0396144 40.8411518,23.0694546 40.503758,22.7657242 C40.1652998,22.4630596 40.1376271,21.9440537 40.4398979,21.6051546 C41.5340332,20.3795761 43.0932823,19.6762006 44.7387425,19.6762006 C46.3810097,19.6762006 47.9413231,20.3795761 49.037587,21.6051546 L49.037587,21.6051546 Z" id="Fill-330" fill="#222C30"></path>
                    <path d="M29.071322,37.0137673 C29.071322,36.5597704 29.4395816,36.1888997 29.8961808,36.1888997 C30.349587,36.1888997 30.7210395,36.5597704 30.7210395,37.0137673 C30.7210395,37.2428972 30.8136366,37.449647 30.961579,37.5988478 C31.1105857,37.746983 31.3170665,37.8397006 31.5437696,37.8397006 L41.4399461,37.8397006 C41.6666492,37.8397006 41.8741943,37.746983 42.023201,37.5988478 C42.1722078,37.449647 42.2648048,37.2428972 42.2648048,37.0137673 C42.2648048,36.5597704 42.6330643,36.1888997 43.0885992,36.1888997 C43.5451985,36.1888997 43.9145223,36.5597704 43.9145223,37.0137673 C43.9145223,37.6990255 43.6377955,38.3182091 43.1886466,38.7658117 C42.7416264,39.21448 42.1221841,39.4915674 41.4399461,39.4915674 L31.5437696,39.4915674 C30.8604673,39.4915674 30.2431536,39.21448 29.7950691,38.7658117 C29.3480488,38.3182091 29.071322,37.6990255 29.071322,37.0137673" id="Fill-331" fill="#804026"></path>
                    <path d="M28.2464633,22.1530415 C30.0686029,22.1530415 31.5437696,23.6311958 31.5437696,25.4557092 C31.5437696,27.2802226 30.0686029,28.7583769 28.2464633,28.7583769 C26.4243237,28.7583769 24.9491569,27.2802226 24.9491569,25.4557092 C24.9491569,23.6311958 26.4243237,22.1530415 28.2464633,22.1530415" id="Fill-332" fill="#FFFFFF"></path>
                    <path d="M44.7387425,22.1530415 C46.5587534,22.1530415 48.0360488,23.6311958 48.0360488,25.4557092 C48.0360488,27.2802226 46.5587534,28.7583769 44.7387425,28.7583769 C42.9166029,28.7583769 41.4393075,27.2802226 41.4393075,25.4557092 C41.4393075,23.6311958 42.9166029,22.1530415 44.7387425,22.1530415" id="Fill-333" fill="#FFFFFF"></path>
                    <path d="M28.2464633,23.8037359 C29.1564687,23.8037359 29.8961808,24.5433459 29.8961808,25.4556027 C29.8961808,26.3678594 29.1564687,27.1074694 28.2464633,27.1074694 C27.3364578,27.1074694 26.5967458,26.3678594 26.5967458,25.4556027 C26.5967458,24.5433459 27.3364578,23.8037359 28.2464633,23.8037359" id="Fill-334" fill="#663300"></path>
                    <path d="M44.7387425,23.8037359 C45.6487479,23.8037359 46.3863313,24.5444117 46.3863313,25.4556027 C46.3863313,26.3678594 45.6487479,27.1074694 44.7387425,27.1074694 C43.8266083,27.1074694 43.089025,26.3678594 43.089025,25.4556027 C43.089025,24.5444117 43.8266083,23.8037359 44.7387425,23.8037359" id="Fill-335" fill="#663300"></path>
                    <path d="M26.5967458,24.6295627 C27.053345,24.6295627 27.4216045,25.0004334 27.4216045,25.4554961 C27.4216045,25.9126902 27.053345,26.2814294 26.5967458,26.2814294 C26.1433395,26.2814294 25.771887,25.9126902 25.771887,25.4554961 C25.771887,25.0004334 26.1433395,24.6295627 26.5967458,24.6295627" id="Fill-336" fill="#FFFFFF"></path>
                    <path d="M43.089025,24.6295627 C43.5456242,24.6295627 43.9138837,25.0004334 43.9138837,25.4554961 C43.9138837,25.9126902 43.5456242,26.2814294 43.089025,26.2814294 C42.6324257,26.2814294 42.2641662,25.9126902 42.2641662,25.4554961 C42.2641662,25.0004334 42.6324257,24.6295627 43.089025,24.6295627" id="Fill-337" fill="#FFFFFF"></path>
                    <path d="M38.9601545,27.1050182 C38.9601545,26.6510213 38.591895,26.2812163 38.1374245,26.2812163 C37.6840182,26.2812163 37.3178874,26.6510213 37.3178874,27.1050182 L37.3178874,30.4066202 C37.3178874,30.8606171 37.6840182,31.2325535 38.1374245,31.2325535 L39.787142,31.2325535 C40.2458699,31.2325535 40.6120007,31.6012928 40.6120007,32.0584869 C40.6120007,32.5135495 40.2437412,32.8865517 39.787142,32.8865517 L33.1978509,32.8865517 C32.742316,32.8865517 32.3729922,32.5135495 32.3729922,32.0584869 C32.3729922,31.6012928 32.739123,31.2325535 33.1978509,31.2325535 L34.8454398,31.2325535 C35.298846,31.2325535 35.6681699,30.8606171 35.6681699,30.4066202 L35.6681699,27.1050182 C35.6681699,26.6510213 35.298846,26.2812163 34.8475684,26.2812163 C34.3920335,26.2812163 34.0248383,26.6510213 34.0248383,27.1050182 L34.0248383,29.5806868 L33.1978509,29.5806868 C31.8323106,29.5806868 30.7232746,30.693299 30.7232746,32.0584869 C30.7232746,33.4258062 31.8323106,34.5352212 33.1978509,34.5352212 L39.787142,34.5352212 C41.1537467,34.5352212 42.2617182,33.4258062 42.2617182,32.0584869 C42.2617182,30.693299 41.151618,29.5806868 39.787142,29.5806868 L38.9601545,29.5806868 L38.9601545,27.1050182 Z" id="Fill-338" fill="#804026"></path>
                    <path d="M36.4927093,22.9788683 L35.6678506,22.152935 L36.4927093,21.3270016 C37.7975826,21.3270016 39.0119876,21.9397909 39.7921443,22.9809998 C40.5723011,21.942988 41.786706,21.3301988 43.0894507,21.3301988 L53.8072929,21.3301988 C54.2617634,21.3301988 54.630023,21.698938 54.630023,22.152935 C54.630023,22.6069319 54.2617634,22.9756712 53.8072929,22.9756712 L51.3348453,22.9756712 L51.3348453,25.4556027 C51.3348453,28.877631 48.5675772,31.6485042 45.1500011,31.6485042 C41.7345537,31.6485042 38.9651569,28.8754996 38.9651569,25.4556027 C38.9651569,24.0872176 37.859314,22.9788683 36.4927093,22.9788683 L36.4927093,22.9788683 Z M43.0894507,22.9778026 C41.7302963,22.9778026 40.6148744,24.0946776 40.6148744,25.4556027 C40.6148744,27.9643086 42.6445591,29.9966375 45.1500011,29.9966375 C47.6533144,29.9966375 49.6851278,27.9611114 49.6851278,25.4556027 L49.6851278,22.9778026 L43.0894507,22.9778026 Z" id="Fill-339" fill="#DE3232"></path>
                    <path d="M29.8961808,22.9778026 L23.2994394,22.9778026 L23.2994394,25.4556027 C23.2994394,27.9621772 25.3323171,29.9966375 27.8356304,29.9966375 C30.3378794,29.9966375 32.3686284,27.9643086 32.3686284,25.4556027 C32.3686284,24.0946776 31.2553352,22.9778026 29.8961808,22.9778026 L29.8961808,22.9778026 Z M36.4929222,22.9788683 C35.1263175,22.9788683 34.0183459,24.0872176 34.0183459,25.4556027 C34.0183459,28.8754996 31.2500135,31.6485042 27.8356304,31.6485042 C24.4148613,31.6485042 21.6497219,28.877631 21.6497219,25.4556027 L21.6497219,22.9756712 L19.1751456,22.9756712 C18.7217394,22.9756712 18.3556085,22.6069319 18.3556085,22.152935 C18.3556085,21.698938 18.7217394,21.3301988 19.1751456,21.3301988 L29.8961808,21.3301988 C31.1957325,21.3301988 32.4133304,21.942988 33.1902941,22.9809998 C33.9704509,21.9397909 35.1880488,21.3270016 36.4929222,21.3270016 L36.4929222,22.9788683 Z" id="Fill-340" fill="#F86161"></path>
                    <path d="M41.1085125,63.0825685 L42.847634,63.6772405 L43.4415323,65.417562 C42.7986747,66.0623229 41.7417911,66.0729801 41.0989335,65.429285 C40.4539471,64.7823927 40.4656548,63.7273294 41.1085125,63.0825685" id="Fill-341" fill="#FFCC00"></path>
                    <path d="M30.7210395,62.6103478 C31.631045,62.6103478 32.3686284,63.3488921 32.3686284,64.2611488 C32.3686284,65.1734055 31.631045,65.9119498 30.7210395,65.9119498 C29.8089054,65.9119498 29.071322,65.1734055 29.071322,64.2611488 C29.071322,63.3488921 29.8089054,62.6103478 30.7210395,62.6103478" id="Fill-342" fill="#FFCC00"></path>
                    <path d="M43.441213,65.4172423 L41.1081932,63.0822488 C41.4062067,62.7902414 41.8149109,62.6101346 42.2640598,62.6101346 C43.1740652,62.6101346 43.9137773,63.3486789 43.9137773,64.2609356 C43.9137773,64.7117354 43.7317762,65.1188406 43.441213,65.4172423" id="Fill-343" fill="#BA9400"></path>
                    <path d="M43.089025,65.0644889 L43.089025,77.4716064 C43.089025,77.9256033 42.7228941,78.2932769 42.2684235,78.2964741 C41.81076,78.2964741 41.4393075,77.9319977 41.4393075,77.4716064 L41.4393075,64.2609356 C41.4393075,64.0264771 41.5361618,63.8165302 41.6926189,63.6662636 L42.6207181,63.9678625 L43.089025,65.0644889 Z" id="Fill-344" fill="#FFFFFF"></path>
                    <path d="M42.2642726,63.4351089 C42.7208719,63.4351089 43.0891314,63.8059796 43.0891314,64.2610422 L43.0891314,65.0645954 L41.6927254,63.6653045 C41.8417321,63.5224979 42.0418269,63.4351089 42.2642726,63.4351089" id="Fill-345" fill="#A0B3BA"></path>
                    <path d="M31.5435568,77.4711801 C31.5435568,77.9241113 31.1795546,78.2939163 30.7261484,78.2960478 C30.2674204,78.2960478 29.8959679,77.9315714 29.8959679,77.4711801 L29.8959679,64.2615751 C29.8959679,63.8054467 30.2652918,63.4356417 30.7208267,63.4356417 C31.1752972,63.4356417 31.5435568,63.8054467 31.5435568,64.2615751 L31.5435568,77.4711801 Z" id="Fill-346" fill="#FFFFFF"></path>
                </g>
            </g>
        </g>
    </g>
</svg>