<?xml version="1.0" encoding="UTF-8" standalone="no"?>
<svg width="100px" height="100px" viewBox="0 0 100 100" version="1.1" xmlns="http://www.w3.org/2000/svg" xmlns:xlink="http://www.w3.org/1999/xlink" xmlns:sketch="http://www.bohemiancoding.com/sketch/ns">
    <!-- Generator: Sketch 3.5.2 (25235) - http://www.bohemiancoding.com/sketch -->
    <title>Avatar1</title>
    <desc>Created with Sketch.</desc>
    <defs>
        <circle id="path-1" cx="50" cy="50" r="50"></circle>
    </defs>
    <g id="Page-1" stroke="none" stroke-width="1" fill="none" fill-rule="evenodd" sketch:type="MSPage">
        <g id="Avatar1" sketch:type="MSLayerGroup">
            <mask id="mask-2" sketch:name="Mask Copy 2" fill="white">
                <use xlink:href="#path-1"></use>
            </mask>
            <use id="Mask-Copy-2" fill="#95AFAC" sketch:type="MSShapeGroup" xlink:href="#path-1"></use>
            <g mask="url(#mask-2)" sketch:type="MSShapeGroup">
                <g transform="translate(25.000000, 13.000000)">
                    <path d="M50.000157,71.5499308 L0.460388938,71.5499308 L0.460388938,63.8184318 C0.460388938,60.7256327 2.03098662,59.9412054 3.55762355,59.1787341 L17.4881855,52.2216824 L17.4881855,43.7167342 L32.9703622,43.7167342 L32.9703622,52.2216824 L46.9029224,59.1787341 C48.4275611,59.9412054 50.000157,60.7256327 50.000157,63.8184318 L50.000157,71.5499308 Z" id="Fill-361" fill="#E8B274"></path>
                    <path d="M49.997959,81.8363074 L40.7102516,72.5579099 L17.4879857,49.361417 L17.4879857,43.7167342 L32.9701624,43.7167342 L32.9701624,52.2216824 L46.9027226,59.1797321 C48.4273613,59.9412054 49.9999572,60.7266307 49.9999572,63.8184318 L49.997959,81.8363074 Z" id="Fill-362" fill="#C79256"></path>
                    <path d="M49.997959,70.5915523 C49.4764246,70.920892 48.9458983,71.2412497 48.4073791,71.5496314 L2.05076896,71.5496314 C1.51424799,71.2412497 0.983721677,70.92189 0.460189117,70.5915523 L0.460189117,63.8191304 C0.460189117,60.7263313 2.0307868,59.941904 3.55542551,59.1794327 L17.4879857,52.221383 L17.4879857,43.7174328 L32.9701624,43.7174328 L32.9701624,52.221383 L46.9027226,59.1794327 C48.4273613,59.941904 49.997959,60.7263313 49.997959,63.8191304 L49.997959,70.5915523 Z" id="Fill-363" fill="#FFD6CC"></path>
                    <path d="M49.997959,70.5915523 C49.4764246,70.920892 48.9458983,71.2412497 48.4093773,71.5496314 L39.7011525,71.5496314 L17.4879857,49.3621156 L17.4879857,43.7174328 L32.9701624,43.7174328 L32.9701624,52.221383 L46.9027226,59.1794327 C48.4273613,59.941904 49.997959,60.7263313 49.997959,63.8191304 L49.997959,70.5915523 Z" id="Fill-364" fill="#F8C0B2"></path>
                    <path d="M42.2371882,71.5499308 C39.2838252,77.3812395 37.6133167,84.0877934 37.6133167,90.1067259 C37.6133167,98.4030923 39.5435932,104.204461 42.9315682,110.086668 C43.8167779,111.623586 44.6360464,113.203419 45.298455,114.849119 L5.15929349,114.849119 C5.82270116,113.203419 6.64396789,111.623586 7.52917752,110.086668 C10.9171525,104.204461 12.8444318,98.4030923 12.8444318,90.1067259 C12.8444318,84.0877934 11.1739233,77.3812395 8.22155932,71.5499308 L0.460488849,71.5499308 L0.460488849,63.8184318 C0.460488849,60.7256327 2.03308475,59.9412054 3.55772346,59.1787341 L9.75019447,56.0879309 L25.2293738,71.5499308 L40.7105513,56.0879309 L46.9030223,59.1787341 C48.4266619,59.9412054 49.9982587,60.7256327 49.9982587,63.8184318 L49.9982587,71.5499308 L42.2371882,71.5499308 Z" id="Fill-369" fill="#CC3300"></path>
                    <path d="M42.2371882,71.5499308 C41.9514434,72.1147983 41.6776878,72.6866517 41.4189188,73.2654912 L32.4669117,64.3234194 L40.7105513,56.0879309 L46.9030223,59.1787341 C48.4266619,59.9412054 49.9982587,60.7256327 49.9982587,63.8184318 L49.9982587,71.5499308 L42.2371882,71.5499308 Z" id="Fill-370" fill="#990000"></path>
                    <path d="M38.5986369,81.6845117 C37.9552114,84.5357951 37.6135165,87.3910705 37.6135165,90.1066261 C37.6135165,98.4029925 39.543793,104.204361 42.9317681,110.086568 C43.8169777,111.623486 44.6352471,113.204317 45.2986548,114.849019 L45.2437038,114.849019 L12.5848635,82.2254272 L12.5788689,82.1655473 C13.9136771,83.2623483 15.625149,83.9220257 17.4884853,83.9220257 C19.6555504,83.9220257 21.6128029,83.0328085 23.0175486,81.6006798 C23.623008,80.9839164 24.3663443,80.6715427 25.2295736,80.6715427 C26.0918037,80.6715427 26.8351401,80.9839164 27.4405995,81.6006798 C28.8453452,83.0328085 30.8045959,83.9220257 32.9696628,83.9220257 C34.8709652,83.9220257 36.6134095,83.2354023 37.9622052,82.0986814 C38.099083,81.9619555 38.3148903,81.8232336 38.5986369,81.6845117" id="Fill-371" fill="#990000"></path>
                    <path d="M34.5185798,62.2730302 L37.6138162,59.1792331 L46.9035219,59.1792331 C48.1344228,59.7949985 49.3942979,60.4247359 49.8359037,62.2730302 L34.5185798,62.2730302 Z M28.3261088,68.4586286 L31.4213452,65.3648314 L49.9977591,65.3648314 L49.9977591,68.4586286 L28.3261088,68.4586286 Z M0.624842105,62.2730302 C1.06345049,60.4247359 2.32632293,59.7949985 3.55722391,59.1792331 L12.8449313,59.1792331 L15.9421659,62.2730302 L0.624842105,62.2730302 Z M0.459989295,68.4586286 L0.459989295,65.3648314 L19.0374023,65.3648314 L22.1346369,68.4586286 L0.459989295,68.4586286 Z M42.1397752,108.66402 C42.3945477,109.13807 42.656314,109.612119 42.9320678,110.087167 C43.248785,110.637064 43.5575094,111.193948 43.8522462,111.755821 L6.60550223,111.755821 C6.9032364,111.193948 7.21196075,110.637064 7.52867797,110.087167 C7.80143443,109.612119 8.06619804,109.13807 8.31897235,108.66402 L42.1397752,108.66402 Z M39.453174,102.478422 C39.8008635,103.533307 40.1965103,104.560248 40.6371169,105.570223 L9.82262979,105.570223 C10.2622373,104.560248 10.6568849,103.533307 11.0055736,102.478422 L39.453174,102.478422 Z M38.0214523,96.2928232 C38.1703194,97.3606822 38.361149,98.3886213 38.5899447,99.3846244 L11.8688029,99.3846244 C12.0995968,98.3886213 12.2874291,97.3606822 12.4382944,96.2928232 L38.0214523,96.2928232 Z M37.6138162,90.1072249 C37.6138162,91.1770799 37.6467868,92.2070149 37.7087315,93.200024 L12.7490169,93.200024 C12.813959,92.2070149 12.8449313,91.1770799 12.8449313,90.1072249 L37.6138162,90.1072249 Z M38.1553327,83.9216265 C37.9794897,84.9595456 37.8446102,85.9924746 37.7556896,87.0144257 L12.7050562,87.0144257 C12.6141374,85.9924746 12.4782587,84.9595456 12.3034148,83.9216265 L38.1553327,83.9216265 Z M39.6879643,77.7360281 C39.3532632,78.7599752 39.0575272,79.7939023 38.8007565,80.8288273 L11.6579911,80.8288273 C11.4022194,79.7939023 11.1054844,78.7599752 10.7727814,77.7360281 L39.6879643,77.7360281 Z M42.2366887,71.5504298 C41.7271436,72.5584089 41.2565638,73.5923359 40.82395,74.644227 L9.6347975,74.644227 C9.20418198,73.5923359 8.73160393,72.5584089 8.22105977,71.5504298 L25.2288742,71.5504298 L42.2366887,71.5504298 Z" id="Fill-372" fill="#FFFFFF"></path>
                    <path d="M34.5185798,62.2730302 L37.6138162,59.1792331 L46.9035219,59.1792331 C48.1344228,59.7949985 49.3942979,60.4247359 49.8359037,62.2730302 L34.5185798,62.2730302 Z M36.6067154,68.4586286 L33.5094808,65.3648314 L49.9977591,65.3648314 L49.9977591,68.4586286 L36.6067154,68.4586286 Z M42.2366887,71.5504298 C41.9509438,72.1152973 41.6781873,72.6861527 41.4184193,73.2649922 L39.7009527,71.5504298 L42.2366887,71.5504298 Z" id="Fill-373" fill="#E6E6E6"></path>
                    <path d="M24.2308653,80.8290269 C24.5435861,80.725235 24.876289,80.6713431 25.2289741,80.6713431 C25.5816592,80.6713431 25.9173595,80.725235 26.2280821,80.8290269 L24.2308653,80.8290269 Z M17.3799822,87.0146253 L14.2827475,83.9218261 L38.1554326,83.9218261 C37.9795897,84.9597452 37.8447101,85.9926742 37.7557895,87.0146253 L17.3799822,87.0146253 Z M23.5714541,93.2002236 L20.4742194,90.1074245 L37.6139161,90.1074245 C37.6139161,91.1772795 37.6468867,92.2072145 37.7088314,93.2002236 L23.5714541,93.2002236 Z M29.7639251,99.384824 L26.6666905,96.2920248 L38.0215522,96.2920248 C38.1704193,97.3608818 38.3612489,98.3888209 38.5900446,99.384824 L29.7639251,99.384824 Z M35.9563961,105.570422 L32.8591615,102.478621 L39.4532739,102.478621 C39.8009634,103.533506 40.1966102,104.559449 40.6372168,105.570422 L35.9563961,105.570422 Z M42.1488671,111.756021 L39.0516325,108.66422 L42.1398751,108.66422 C42.3946476,109.138269 42.6564139,109.612319 42.9321677,110.087366 C43.2488849,110.637264 43.5576093,111.194147 43.8523461,111.756021 L42.1488671,111.756021 Z" id="Fill-374" fill="#E6E6E6"></path>
                    <path d="M25.229174,0.418743255 C37.1984871,0.418743255 46.9028225,10.1113104 46.9028225,22.0673395 L46.9028225,46.8087349 L25.229174,43.7169338 C13.4057306,43.8356957 3.55752364,33.9884386 3.55752364,22.0673395 C3.55752364,10.1113104 13.2598608,0.418743255 25.229174,0.418743255" id="Fill-375" fill="#FFCC00"></path>
                    <path d="M40.7107511,22.0818105 C44.1296985,22.0818105 46.9032221,24.851258 46.9032221,28.2684069 C46.9032221,33.8372418 50.5879322,38.5467995 55.6554077,40.0966921 C54.2196896,41.5298188 52.4542658,42.5926878 50.5129991,43.1815073 C51.927736,44.60166 53.687165,45.680497 55.6554077,46.2822904 C54.2376735,47.6974531 52.4782444,48.7703022 50.5129991,49.3681036 C51.927736,50.7882563 53.687165,51.8660953 55.6554077,52.4678888 C54.2376735,53.8830515 52.4782444,54.9549025 50.5129991,55.553702 C51.927736,56.9718587 53.687165,58.0516937 55.6554077,58.6534871 C53.4144086,60.8890051 50.3191722,62.2722318 46.9032221,62.2722318 C46.7963176,62.2722318 46.6874148,62.2712338 46.5815094,62.2682398 C38.6076289,62.096584 32.1953541,55.5876339 32.1953541,47.5816852 C32.1953541,44.6635359 33.0495914,41.9419924 34.5182801,39.6555765 L34.5182801,35.1376346 L34.5182801,28.2524389 L34.5182801,22.0678385 L40.7107511,22.0818105 Z" id="Fill-376" fill="#BA9400"></path>
                    <path d="M9.74979483,25.1600389 C8.03932203,25.1600389 6.65256021,26.5442636 6.65256021,28.2528381 C6.65256021,29.9614125 8.03932203,31.3456373 9.74979483,31.3456373 C11.4582694,31.3456373 12.8450312,29.9614125 12.8450312,28.2528381 C12.8450312,26.5442636 11.4582694,25.1600389 9.74979483,25.1600389" id="Fill-377" fill="#FFD6CC"></path>
                    <path d="M40.7107511,25.1600389 C39.0002783,25.1600389 37.6135165,26.5442636 37.6135165,28.2528381 C37.6135165,29.9614125 39.0002783,31.3456373 40.7107511,31.3456373 C42.4212239,31.3456373 43.8059875,29.9614125 43.8059875,28.2528381 C43.8059875,26.5442636 42.4212239,25.1600389 40.7107511,25.1600389" id="Fill-378" fill="#F8C0B2"></path>
                    <path d="M9.74979483,26.7058397 C8.89355932,26.7058397 8.20117752,27.399449 8.20117752,28.2527383 C8.20117752,29.1070255 8.89355932,29.7996369 9.74979483,29.7996369 C10.6040321,29.7996369 11.2964139,29.1070255 11.2964139,28.2527383 C11.2964139,27.399449 10.6040321,26.7058397 9.74979483,26.7058397" id="Fill-380" fill="#F8C0B2"></path>
                    <path d="M40.7107511,22.0818105 L40.7107511,35.9849358 C40.7107511,44.4888861 33.7439715,51.4479337 25.2295736,51.4479337 C16.7141766,51.4479337 9.74939518,44.4898841 9.74939518,35.9849358 L9.74939518,22.0678385 C9.74939518,17.0229531 12.1992079,12.5249712 15.9688421,9.69664179 L28.3108225,9.69664179 C31.7367636,9.69664179 34.5122855,12.4690833 34.5122855,15.8892261 C34.5122855,19.309369 37.2878073,22.0818105 40.7107511,22.0818105" id="Fill-381" fill="#FFD6CC"></path>
                    <path d="M40.7107511,22.0818105 L40.7107511,24.6466682 L36.322669,20.2644542 L36.3246673,20.2644542 C37.4446673,21.3872031 38.9952828,22.0818105 40.7107511,22.0818105" id="Fill-382" fill="#F8C0B2"></path>
                    <path d="M17.4882855,25.1600389 C19.1987583,25.1600389 20.5855201,26.5442636 20.5855201,28.2528381 C20.5855201,29.9614125 19.1987583,31.3456373 17.4882855,31.3456373 C15.7798109,31.3456373 14.3930491,29.9614125 14.3930491,28.2528381 C14.3930491,26.5442636 15.7798109,25.1600389 17.4882855,25.1600389" id="Fill-383" fill="#FFFFFF"></path>
                    <path d="M32.9699625,25.1600389 C34.6804353,25.1600389 36.0671971,26.5442636 36.0671971,28.2528381 C36.0671971,29.9614125 34.6804353,31.3466352 32.9699625,31.3466352 C31.2594897,31.3466352 29.8747261,29.9614125 29.8747261,28.2528381 C29.8747261,26.5442636 31.2594897,25.1600389 32.9699625,25.1600389" id="Fill-384" fill="#FFFFFF"></path>
                    <path d="M17.4882855,26.7058397 C18.344521,26.7058397 19.0369028,27.399449 19.0369028,28.2527383 C19.0369028,29.1070255 18.344521,29.7996369 17.4882855,29.7996369 C16.6340482,29.7996369 15.9416664,29.1070255 15.9416664,28.2527383 C15.9416664,27.399449 16.6340482,26.7058397 17.4882855,26.7058397" id="Fill-385" fill="#424F54"></path>
                    <path d="M32.9699625,26.7058397 C33.8241998,26.7058397 34.5185798,27.399449 34.5185798,28.2527383 C34.5185798,29.1070255 33.8241998,29.7996369 32.9699625,29.7996369 C32.1157252,29.7996369 31.4213452,29.1070255 31.4213452,28.2527383 C31.4213452,27.399449 32.1157252,26.7058397 32.9699625,26.7058397" id="Fill-386" fill="#424F54"></path>
                    <path d="M24.4592614,28.2527383 C24.4592614,27.8275907 24.8029545,27.482283 25.2295736,27.482283 C25.6551936,27.482283 26.0008849,27.8275907 26.0008849,28.2527383 L26.0008849,31.3455375 C26.0008849,31.7696871 25.6551936,32.1189867 25.2295736,32.1189867 L23.6809563,32.1189867 C23.252339,32.1189867 22.9086459,32.4632964 22.9086459,32.892436 C22.9086459,33.3185817 23.252339,33.6678813 23.6809563,33.6678813 L25.2295736,33.6678813 C25.6551936,33.6678813 26.0008849,34.012191 26.0008849,34.4383366 C26.0008849,34.8634842 25.6551936,35.2087919 25.2295736,35.2087919 L23.6809563,35.2117859 C22.3981017,35.2117859 21.3600285,34.1718709 21.3600285,32.892436 C21.3600285,31.6139992 22.4000999,30.5720882 23.6809563,30.5720882 L24.4592614,30.5720882 L24.4592614,28.2527383 Z" id="Fill-387" fill="#B08C82"></path>
                    <path d="M15.9419661,27.4791892 C16.3675861,27.4791892 16.7142765,27.8264929 16.7142765,28.2526385 C16.7142765,28.6807801 16.3675861,29.0260878 15.9419661,29.0260878 C15.5133488,29.0260878 15.1676574,28.6807801 15.1676574,28.2526385 C15.1676574,27.8264929 15.5133488,27.4791892 15.9419661,27.4791892" id="Fill-388" fill="#FFFFFF"></path>
                    <path d="M31.4213452,27.4791892 C31.8499625,27.4791892 32.1956539,27.8264929 32.1956539,28.2526385 C32.1956539,28.6807801 31.8499625,29.0260878 31.4213452,29.0260878 C30.9957252,29.0260878 30.6470366,28.6807801 30.6470366,28.2526385 C30.6470366,27.8264929 30.9957252,27.4791892 31.4213452,27.4791892" id="Fill-389" fill="#FFFFFF"></path>
                    <path d="M12.8824978,23.0368956 C14.1583586,21.9131487 15.7889028,21.2943892 17.4883854,21.2943892 C19.1898662,21.2943892 20.8204103,21.9131487 22.0962712,23.0368956 L21.0741838,24.1905826 C20.0800714,23.3153374 18.8152007,22.8412878 17.4883854,22.8412878 C16.1635682,22.8412878 14.8996967,23.3153374 13.9055843,24.1905826 L12.8824978,23.0368956 Z" id="Fill-390" fill="#B08C82"></path>
                    <path d="M28.3640749,23.0368956 C29.6399358,21.9131487 31.2684817,21.2943892 32.9699625,21.2943892 C34.6714434,21.2943892 36.3019875,21.9131487 37.5758501,23.0368956 L36.5557609,24.1905826 C35.5616485,23.3153374 34.2947797,22.8412878 32.9699625,22.8412878 C31.6451454,22.8412878 30.3812739,23.3153374 29.3851632,24.1905826 L28.3640749,23.0368956 Z" id="Fill-391" fill="#B08C82"></path>
                    <path d="M18.262694,39.0775354 C18.262694,38.6513898 18.6113827,38.3040861 19.0370027,38.3040861 C19.46562,38.3040861 19.8113113,38.6513898 19.8113113,39.0775354 C19.8113113,39.2911072 19.8982337,39.486715 20.0371097,39.6264349 L20.0371097,39.6234409 C20.1769848,39.7631608 20.37281,39.8499867 20.58562,39.8499867 L29.8753256,39.8499867 C30.0881356,39.8499867 30.2829616,39.7641588 30.4228368,39.6264349 C30.5627119,39.486715 30.6466369,39.2911072 30.6466369,39.0775354 C30.6466369,38.6513898 30.9953256,38.3040861 31.4209456,38.3040861 C31.8495629,38.3040861 32.1952542,38.6513898 32.1952542,39.0775354 C32.1952542,39.7162548 31.9364853,40.2950943 31.5168599,40.7142539 L31.5118644,40.7172479 C31.0932382,41.1374055 30.5137556,41.3968853 29.8753256,41.3968853 L20.58562,41.3968853 C19.9441927,41.3968853 19.3627119,41.1374055 18.9440856,40.7172479 L18.9460839,40.7162499 L18.9440856,40.7142539 C18.5244603,40.2950943 18.262694,39.7162548 18.262694,39.0775354" id="Fill-392" fill="#B08C82"></path>
                    <path d="M25.229174,24.3865896 C26.2722426,24.3865896 27.2173988,24.7987632 27.913777,25.4684206 C28.3373988,24.8027552 29.0737413,24.3865896 29.8730277,24.3865896 L41.4846601,24.3865896 C41.9112792,24.3865896 42.2589688,24.7328953 42.2589688,25.1600389 C42.2589688,25.5861845 41.9112792,25.9334882 41.4846601,25.9334882 L39.1617342,25.9334882 L39.1617342,28.2528381 C39.1617342,30.3805721 37.4222872,32.1190865 35.2931882,32.1190865 L31.421645,32.1190865 C29.2915468,32.1190865 27.5520999,30.3805721 27.5520999,28.2528381 C27.5520999,26.9714072 26.5120285,25.9334882 25.229174,25.9334882 L24.609727,25.1600389 L25.229174,24.3865896 Z M37.6131169,25.9334882 L29.8730277,25.9334882 C29.4464086,25.9334882 29.1007172,26.2797939 29.1007172,26.7059395 L29.1007172,28.2528381 C29.1007172,29.5272829 30.1457841,30.572188 31.421645,30.572188 L35.2931882,30.572188 C36.5690491,30.572188 37.6131169,29.5272829 37.6131169,28.2528381 L37.6131169,25.9334882 Z" id="Fill-394" fill="#422100"></path>
                    <path d="M20.58562,25.9333884 L12.8445317,25.9333884 L12.8445317,28.2527383 C12.8445317,29.5271831 13.8915968,30.5720882 15.1674576,30.5720882 L19.0370027,30.5720882 C20.3128635,30.5720882 21.3599286,29.5271831 21.3599286,28.2527383 L21.3599286,26.7058397 C21.3599286,26.2806921 21.01124,25.9333884 20.58562,25.9333884 L20.58562,25.9333884 Z M8.97598573,25.9333884 C8.54736842,25.9333884 8.20067797,25.5870827 8.20067797,25.1599391 C8.20067797,24.7337935 8.54736842,24.3864898 8.97598573,24.3864898 L20.58562,24.3864898 C21.3839072,24.3864898 22.1212489,24.8026554 22.5448707,25.4683208 C23.2412489,24.7986634 24.186405,24.3864898 25.2294737,24.3864898 L25.2294737,25.9333884 C23.9466191,25.9333884 22.9065477,26.9713074 22.9065477,28.2527383 C22.9065477,30.3804723 21.1671008,32.1189867 19.0370027,32.1189867 L15.1674576,32.1189867 C13.0373595,32.1189867 11.2959144,30.3804723 11.2959144,28.2527383 L11.2959144,25.9333884 L8.97598573,25.9333884 Z" id="Fill-395" fill="#663300"></path>
                    <path d="M9.74979483,138.043916 C9.74979483,138.472057 9.40110616,138.817365 8.97548617,138.817365 C8.54686887,138.817365 8.20117752,138.472057 8.20117752,138.043916 L8.20117752,134.951116 C8.20117752,134.524971 7.85548617,134.177667 7.42686887,134.177667 C6.99825156,134.177667 6.65256021,134.524971 6.65256021,134.951116 L6.65256021,139.590814 C6.65256021,140.01696 6.30686887,140.363265 5.87825156,140.363265 C5.45462979,140.363265 5.11093666,140.022948 5.10394291,139.599796 L5.10394291,140.363265 C5.10394291,140.790409 4.75825156,141.136715 4.32963426,141.136715 C3.90401427,141.136715 3.55732382,140.790409 3.55732382,140.363265 L3.55732382,139.590814 C3.55732382,140.01696 3.20963426,140.363265 2.78301517,140.363265 C2.35539697,140.363265 2.00870651,140.01696 2.00870651,139.590814 L2.00870651,137.270466 C2.00870651,137.698608 1.66301517,138.043916 1.23439786,138.043916 C0.806779661,138.043916 0.460089206,137.698608 0.460089206,137.270466 L0.460089206,71.5502302 L9.74979483,71.5502302 L9.74979483,74.6011134 L8.20117752,93.1998244 L8.20117752,124.12582 L8.76867083,125.259547 C9.4440678,126.608842 9.74979483,127.901251 9.74979483,129.409227 L9.74979483,138.043916 Z" id="Fill-398" fill="#FFD6CC"></path>
                    <path d="M8.20117752,32.8911386 C9.05541481,32.8911386 9.74979483,33.584748 9.74979483,34.4380372 C9.74979483,35.2923245 9.05541481,35.9839378 8.20117752,35.9839378 C7.34494202,35.9839378 6.65256021,35.2923245 6.65256021,34.4380372 C6.65256021,33.584748 7.34494202,32.8911386 8.20117752,32.8911386" id="Fill-404" fill="#FFFFFF"></path>
                    <path d="M40.7107511,138.043916 C40.7107511,138.472057 41.0564425,138.817365 41.4850598,138.817365 C41.9106798,138.817365 42.2593684,138.472057 42.2593684,138.043916 L42.2593684,134.951116 C42.2593684,134.524971 42.6050598,134.177667 43.0336771,134.177667 C43.4592971,134.177667 43.8059875,134.524971 43.8059875,134.951116 L43.8059875,139.590814 C43.8059875,140.01696 44.1536771,140.363265 44.5802962,140.363265 C45.0039179,140.363265 45.3496093,140.022948 45.3546048,139.599796 L45.3546048,140.363265 C45.3546048,140.790409 45.7002962,141.136715 46.1289135,141.136715 C46.5565317,141.136715 46.9032221,140.790409 46.9032221,140.363265 L46.9032221,139.590814 C46.9032221,140.01696 47.2489135,140.363265 47.6775308,140.363265 C48.1031508,140.363265 48.4518394,140.01696 48.4518394,139.590814 L48.4518394,137.270466 C48.4518394,137.698608 48.7975308,138.043916 49.2261481,138.043916 C49.6517681,138.043916 50.0004567,137.698608 50.0004567,137.270466 L50.0004567,71.5502302 L40.7107511,71.5502302 L40.7107511,74.6011134 L42.2593684,93.1998244 L42.2593684,124.12582 L41.6918751,125.259547 C41.0164781,126.608842 40.7107511,127.901251 40.7107511,129.409227 L40.7107511,138.043916 Z" id="Fill-396" fill="#FFD6CC"></path>
                </g>
            </g>
        </g>
    </g>
</svg>