<svg width="1020" height="650" viewBox="0 0 1020 650" xmlns="http://www.w3.org/2000/svg" xmlns:xlink="http://www.w3.org/1999/xlink">
    <defs>
        <path id="a" d="M38.7 8.4c-5.9-6.9-16-9.7-24.4-7.2C5.9 3.7 1.8 11.5.7 20.4c-1.1 9 1.5 17 1.5 17 9 6.7 25.3 3.2 25.3 3.2S43.2 30.7 47 20.3c0 0-2.4-5-8.3-11.9z"/>
        <path id="c" d="M38.7 8.4c-5.9-6.9-16-9.7-24.4-7.2C5.9 3.7 1.8 11.5.7 20.4c-1.1 9 1.5 17 1.5 17 9 6.7 25.3 3.2 25.3 3.2S43.2 30.7 47 20.3c0 0-2.4-5-8.3-11.9z"/>
        <path id="e" d="M24.6 3.6s3.3 6.8-5.4 14.5h-2.8S2.2 16.9.9 6.2c0-.1 14.7-10.3 23.7-2.6z"/>
        <path id="g" d="M24.6 3.6s3.3 6.8-5.4 14.5h-2.8S2.2 16.9.9 6.2c0-.1 14.7-10.3 23.7-2.6z"/>
        <path id="i" d="M21.7 13.5c-1.3-5.5-9.2-7.1-9.2-7.1L11.8.2S5.4 1.7 4 4.1C2.5 6.5 0 8.4.4 13.4c.9 10.7 9.2 12.4 9.2 12.4h4c7.5-4.3 8.5-10.8 8.1-12.3z"/>
        <path id="k" d="M21.7 13.5c-1.3-5.5-9.2-7.1-9.2-7.1L11.8.2S5.4 1.7 4 4.1C2.5 6.5 0 8.4.4 13.4c.9 10.7 9.2 12.4 9.2 12.4h4c7.5-4.3 8.5-10.8 8.1-12.3z"/>
        <path id="m" d="M5.6 7.2s-2.4 4.2-2.9 6c-.5 1.8-2 4.6-2 5 0 .4-.2.4-.2.7 0 .3.3.5.3.5s7.6-2.6 14.4-3.1c6.8-.5 10.9-4.6 15.5-5 4.6-.5 6 .3 6 .3s.2-.5 0-.7c0 0 .2-.4.1-.5-.1-.1-.4-.2-.4-.2s.1-3.6-5.5-9.9C30.8.1 15 .7 5.6 7.2z"/>
        <path id="o" d="M5.6 7.2s-2.4 4.2-2.9 6c-.5 1.8-2 4.6-2 5 0 .4-.2.4-.2.7 0 .3.3.5.3.5s7.6-2.6 14.4-3.1c6.8-.5 10.9-4.6 15.5-5 4.6-.5 6 .3 6 .3s.2-.5 0-.7c0 0 .2-.4.1-.5-.1-.1-.4-.2-.4-.2s.1-3.6-5.5-9.9C30.8.1 15 .7 5.6 7.2z"/>
        <path id="q" d="M5.6 7.2s-2.4 4.2-2.9 6c-.5 1.8-2 4.6-2 5 0 .4-.2.4-.2.7 0 .3.3.5.3.5s7.6-2.6 14.4-3.1c6.8-.5 10.9-4.6 15.5-5 4.6-.5 6 .3 6 .3s.2-.5 0-.7c0 0 .2-.4.1-.5-.1-.1-.4-.2-.4-.2s.1-3.6-5.5-9.9C30.8.1 15 .7 5.6 7.2z"/>
        <path id="s" d="M14 5.8s.4 1 2.2 3.3c4.5 5.8 4.4 9 10.4 14.3l.8-.3s-.2.6-1.1.8c-8.1 2.1-14.7.6-18.7-2.4C3.6 18.4.8 15 .6 5c6-10 13.4.8 13.4.8z"/>
        <path id="u" d="M14 5.8s.4 1 2.2 3.3c4.5 5.8 4.4 9 10.4 14.3l.8-.3s-.2.6-1.1.8c-8.1 2.1-14.7.6-18.7-2.4C3.6 18.4.8 15 .6 5c6-10 13.4.8 13.4.8z"/>
        <path id="w" d="M12.9.1L14.3 2s-5.7 9-13.1 8c0 0-.8-1.1-.9-1.3C.3 8.8 9 6.5 12.9.1z"/>
        <path id="y" d="M12.9.1L14.3 2s-5.7 9-13.1 8c0 0-.8-1.1-.9-1.3C.3 8.8 9 6.5 12.9.1z"/>
        <path id="A" d="M16.5 7.9s-5.5 8.5-13 8.2c0 0-.3 0-.4-.1-.2-.2-5.5-10.7 1.4-14.8 6.2-3.7 12 6.2 12 6.3.1.1.1.2 0 .4z"/>
        <path id="C" d="M16.5 7.9s-5.5 8.5-13 8.2c0 0-.3 0-.4-.1-.2-.2-5.5-10.7 1.4-14.8 6.2-3.7 12 6.2 12 6.3.1.1.1.2 0 .4z"/>
        <path id="E" d="M8 .7c-.2.1-8.4 4-5.3 12.5 0 0-1.8-1.8-2.4-1.9-.6-.1 1.9 4.5 2.5 4.7.5.2 4.1-.2 7.4-1.1.9-.2 1.3-.4 2.1-.8L8 .7z"/>
        <path id="G" d="M8 .7c-.2.1-8.4 4-5.3 12.5 0 0-1.8-1.8-2.4-1.9-.6-.1 1.9 4.5 2.5 4.7.5.2 4.1-.2 7.4-1.1.9-.2 1.3-.4 2.1-.8L8 .7z"/>
        <path id="I" d="M8 .7c-.2.1-8.4 4-5.3 12.5 0 0-1.8-1.8-2.4-1.9-.6-.1 1.9 4.5 2.5 4.7.5.2 4.1-.2 7.4-1.1.9-.2 1.3-.4 2.1-.8L8 .7z"/>
        <path id="K" d="M4 .5c.2.1 9.4 5.2 5.7 15.3 0 0 1.8-1.8 2.4-1.9.6-.1-1.9 4.5-2.5 4.7-.5.2-4.1-.2-7.4-1.1-.9-.2-1.3-.4-2.1-.8L4 .5z"/>
        <path id="M" d="M4 .5c.2.1 9.4 5.2 5.7 15.3 0 0 1.8-1.8 2.4-1.9.6-.1-1.9 4.5-2.5 4.7-.5.2-4.1-.2-7.4-1.1-.9-.2-1.3-.4-2.1-.8L4 .5z"/>
        <path id="O" d="M4 .5c.2.1 9.4 5.2 5.7 15.3 0 0 1.8-1.8 2.4-1.9.6-.1-1.9 4.5-2.5 4.7-.5.2-4.1-.2-7.4-1.1-.9-.2-1.3-.4-2.1-.8L4 .5z"/>
        <path id="Q" d="M35.3 2c4.3 3.5 7.5 15.2 7.5 15.2s8.3 9.7 2.1 19.9c0 0-32.7 1.3-42.5-.9 0 0-5.5-10.1 2.8-22 2.2-3.1 2.3-7.7 4.6-12-.1 0 21.2-3.7 25.5-.2z"/>
        <path id="S" d="M35.3 2c4.3 3.5 7.5 15.2 7.5 15.2s8.3 9.7 2.1 19.9c0 0-32.7 1.3-42.5-.9 0 0-5.5-10.1 2.8-22 2.2-3.1 2.3-7.7 4.6-12-.1 0 21.2-3.7 25.5-.2z"/>
        <path id="U" d="M35.3 2c4.3 3.5 7.5 15.2 7.5 15.2s8.3 9.7 2.1 19.9c0 0-32.7 1.3-42.5-.9 0 0-5.5-10.1 2.8-22 2.2-3.1 2.3-7.7 4.6-12-.1 0 21.2-3.7 25.5-.2z"/>
        <path id="W" d="M35.3 2c4.3 3.5 7.5 15.2 7.5 15.2s8.3 9.7 2.1 19.9c0 0-32.7 1.3-42.5-.9 0 0-5.5-10.1 2.8-22 2.2-3.1 2.3-7.7 4.6-12-.1 0 21.2-3.7 25.5-.2z"/>
        <path id="X" d="M4.9 16.2S17.1 4.4 25.9 0c3.5 8.4-3.6 21.2-4.8 22.7-3.4 4.1-5 6.1-15.4 7.6-11.1-5-.8-14.1-.8-14.1z"/>
        <path id="Z" d="M4.9 16.2S17.1 4.4 25.9 0c3.5 8.4-3.6 21.2-4.8 22.7-3.4 4.1-5 6.1-15.4 7.6-11.1-5-.8-14.1-.8-14.1z"/>
        <path id="ab" d="M.5 1.9L2 .8s9.3 5.1 9.3 12.9c0 0-1 .9-1.2 1.1 0-.1-2.5-9.7-9.6-12.9z"/>
        <path id="ad" d="M.5 1.9L2 .8s9.3 5.1 9.3 12.9c0 0-1 .9-1.2 1.1 0-.1-2.5-9.7-9.6-12.9z"/>
        <path id="af" d="M9 .5s8.7 5.2 9.3 13c0 0 0 .2-.1.3-.2.3-10.6 7.9-16 .8C-3.1 7.5 8.5.5 8.5.5s.4-.1.5 0z"/>
        <path id="ah" d="M9 .5s8.7 5.2 9.3 13c0 0 0 .2-.1.3-.2.3-10.6 7.9-16 .8C-3.1 7.5 8.5.5 8.5.5s.4-.1.5 0z"/>
        <path id="aj" d="M1.2 23.3C2 14.2 7.4 5.2 16.5 1.6c9.1-3.6 19.2-.8 26 5.2 6.8 6 8.4 9.9 8.4 9.9s0 15.3-19.2 23C12.5 47.3 2 36.2 2 36.2s-1.6-3.8-.8-12.9z"/>
        <path id="al" d="M1.2 23.3C2 14.2 7.4 5.2 16.5 1.6c9.1-3.6 19.2-.8 26 5.2 6.8 6 8.4 9.9 8.4 9.9s0 15.3-19.2 23C12.5 47.3 2 36.2 2 36.2s-1.6-3.8-.8-12.9z"/>
        <path id="an" d="M4.7 4.4S16.6-1.5 31.3 2c0 0 4.1 1.9 7.3 14.7 0 .2.2.2.1.5 0 0-2.8 1.2-6 .3-3.2-.9-18.8-8.6-32.6-1.9 0 0-.1-.4 0-.6.1-.3.9-1 .9-1.2 0 0-.2-.2-.1-.3.1-.1.3-.1.4-.4.1-.3 1.5-3.1 1.7-4.3.2-1.2 1.5-4.3 1.7-4.4z"/>
        <path id="ap" d="M4.7 4.4S16.6-1.5 31.3 2c0 0 4.1 1.9 7.3 14.7 0 .2.2.2.1.5 0 0-2.8 1.2-6 .3-3.2-.9-18.8-8.6-32.6-1.9 0 0-.1-.4 0-.6.1-.3.9-1 .9-1.2 0 0-.2-.2-.1-.3.1-.1.3-.1.4-.4.1-.3 1.5-3.1 1.7-4.3.2-1.2 1.5-4.3 1.7-4.4z"/>
        <path id="ar" d="M4.7 4.4S16.6-1.5 31.3 2c0 0 4.1 1.9 7.3 14.7 0 .2.2.2.1.5 0 0-2.8 1.2-6 .3-3.2-.9-18.8-8.6-32.6-1.9 0 0-.1-.4 0-.6.1-.3.9-1 .9-1.2 0 0-.2-.2-.1-.3.1-.1.3-.1.4-.4.1-.3 1.5-3.1 1.7-4.3.2-1.2 1.5-4.3 1.7-4.4z"/>
        <path id="at" d="M4.7 4.4S16.6-1.5 31.3 2c0 0 4.1 1.9 7.3 14.7 0 .2.2.2.1.5 0 0-2.8 1.2-6 .3-3.2-.9-18.8-8.6-32.6-1.9 0 0-.1-.4 0-.6.1-.3.9-1 .9-1.2 0 0-.2-.2-.1-.3.1-.1.3-.1.4-.4.1-.3 1.5-3.1 1.7-4.3.2-1.2 1.5-4.3 1.7-4.4z"/>
        <path id="av" d="M3.4.5c-.2.2-6.8 8.4.2 14.4 0 0-2.6-.6-3.3-.3-.7.3 3.9 2.9 4.6 2.8.6-.1 4.1-2.5 7-5.2.8-.7 1.1-1.1 1.8-1.9L3.4.5z"/>
        <path id="ax" d="M3.4.5c-.2.2-6.8 8.4.2 14.4 0 0-2.6-.6-3.3-.3-.7.3 3.9 2.9 4.6 2.8.6-.1 4.1-2.5 7-5.2.8-.7 1.1-1.1 1.8-1.9L3.4.5z"/>
        <path id="az" d="M3.4.5c-.2.2-6.8 8.4.2 14.4 0 0-2.6-.6-3.3-.3-.7.3 3.9 2.9 4.6 2.8.6-.1 4.1-2.5 7-5.2.8-.7 1.1-1.1 1.8-1.9L3.4.5z"/>
        <path id="aB" d="M13 .7c.1.2 4.6 9.8-3.7 13.9 0 0 2.7 0 3.3.5.6.5-4.5 1.9-5.2 1.6-.5-.3-3.4-3.5-5.5-6.8C1.3 9 1.1 8.5.6 7.6L13 .7z"/>
        <path id="aD" d="M13 .7c.1.2 4.6 9.8-3.7 13.9 0 0 2.7 0 3.3.5.6.5-4.5 1.9-5.2 1.6-.5-.3-3.4-3.5-5.5-6.8C1.3 9 1.1 8.5.6 7.6L13 .7z"/>
        <path id="aF" d="M13 .7c.1.2 4.6 9.8-3.7 13.9 0 0 2.7 0 3.3.5.6.5-4.5 1.9-5.2 1.6-.5-.3-3.4-3.5-5.5-6.8C1.3 9 1.1 8.5.6 7.6L13 .7z"/>
        <path id="aH" d="M12.1 1.6C7.8 5.1 4.7 15.9 4.7 15.9s-8.9 9.2-2 19.1c0 0 30.3 2.2 40.1 0 0 0 6.8-13.7-3.4-32.9 0 0-23-4-27.3-.5z"/>
        <path id="aJ" d="M12.1 1.6C7.8 5.1 4.7 15.9 4.7 15.9s-8.9 9.2-2 19.1c0 0 30.3 2.2 40.1 0 0 0 6.8-13.7-3.4-32.9 0 0-23-4-27.3-.5z"/>
        <path id="aL" d="M12.1 1.6C7.8 5.1 4.7 15.9 4.7 15.9s-8.9 9.2-2 19.1c0 0 30.3 2.2 40.1 0 0 0 6.8-13.7-3.4-32.9 0 0-23-4-27.3-.5z"/>
        <path id="aN" d="M4.9 20.2S14.8 7 23.4.3c6 7.6 1.8 20.5.9 22.3-2.7 5-4 7.4-14.9 11.5-16.9 6.4-4.5-13.9-4.5-13.9z"/>
        <path id="aP" d="M16.4 10.5S2-.9 1.7 1.1c0 0-3.6 8.1 2.8 17.9 9.9 15.2 11.9-8.5 11.9-8.5z"/>
        <path id="aR" d="M16.4 10.5S2-.9 1.7 1.1c0 0-3.6 8.1 2.8 17.9 9.9 15.2 11.9-8.5 11.9-8.5z"/>
        <path id="aT" d="M6.9 2.1S3 10 2.4 12.5c0 0-.6 0-.6.4v.4s-.6.2-.8.8c-.2.6 0 1.2 0 1.2s6-2.1 14.1-2.1S32.7 18 35.4 18c2.7 0 7.8-.7 7.8-.7s-.3-8.7-3.3-12.6c-.1-.1-9.9-7.2-33-2.6z"/>
        <path id="aV" d="M6.9 2.1S3 10 2.4 12.5c0 0-.6 0-.6.4v.4s-.6.2-.8.8c-.2.6 0 1.2 0 1.2s6-2.1 14.1-2.1S32.7 18 35.4 18c2.7 0 7.8-.7 7.8-.7s-.3-8.7-3.3-12.6c-.1-.1-9.9-7.2-33-2.6z"/>
        <path id="aX" d="M6.9 2.1S3 10 2.4 12.5c0 0-.6 0-.6.4v.4s-.6.2-.8.8c-.2.6 0 1.2 0 1.2s6-2.1 14.1-2.1S32.7 18 35.4 18c2.7 0 7.8-.7 7.8-.7s-.3-8.7-3.3-12.6c-.1-.1-9.9-7.2-33-2.6z"/>
        <path id="aZ" d="M50.1 19.4c-2.5-8.7-9.6-16.5-19.2-18.3-9.6-1.8-19 3-24.5 10.2C.9 18.5.1 22.7.1 22.7s3 15 23.3 18.8c20.3 3.8 28.5-9.2 28.5-9.2s.7-4.2-1.8-12.9z"/>
        <path id="bb" d="M50.1 19.4c-2.5-8.7-9.6-16.5-19.2-18.3-9.6-1.8-19 3-24.5 10.2C.9 18.5.1 22.7.1 22.7s3 15 23.3 18.8c20.3 3.8 28.5-9.2 28.5-9.2s.7-4.2-1.8-12.9z"/>
    </defs>
    <g fill="none" fill-rule="evenodd" transform="translate(0, 150)">
        <path d="M595.3 293.9l-55-9.2-15.3 16.6-90-60.2-77.1 93.5-41.6-28.5-118.2 89-21.3-22.2-51.3 40.8-26.5-2.5-108 98.2h616.2l-11.9-215.5z" fill="#365066"/>
        <path d="M436.6 249.4l-33.7 44.5 16.9-7.3 6.7 12.1 6.8-10.9 47.5 10.9-13.3-17.4 26.8 5-57.7-36.9z" fill="#DAF0F5" opacity=".43"/>
        <path d="M435 241.1l-23.5 46.2 17.7-10.4-34.5 47.4-36.8 10.3 77.1-93.5z" fill="#263D4B" opacity=".79"/>
        <path d="M436.6 306.1l-11.8 23.4-3 32.6 14.8-36.9v-19.1zM465.7 273l38.4 23.6 18.9 21.3-39.8-24-17.5-20.9z" fill="#9FB3A9" opacity=".79"/>
        <path d="M316.3 306.1l-44.6 66.8 27.4-3.1-59.3 52.5-9.7-15.1-66.4 39.6-7.1-20.6-68.5 65.1 46.4-12.2 17.7 29.9-161.2.4 108-98.2 22.2 10.2 4.3-7.7 51.3-40.8 21.3 22.2 118.2-89zM233 435.9l-29.4 32.4 2.4 21 21.6-22.6 5.4-30.8zM360.2 362.1L346 398.2l7.1 18.2 13-18.5-5.9-35.8z" fill="#263D4B" opacity=".79"/>
        <path fill="#DBE4BB" d="M628 2.5h3.9v73.9H628z"/>
        <path d="M268.1 509.4l65.5-70.9 20.7 8.3 34.4-36.7 21 3.6 77.8-95.8 44.5 11.6L581.4 224l45.8-151.7 6 1.9 81.5 150.9 101.9 115.1 23.8-20.3 50.3 52.2 16-12.4 107.8 149.7H268.1z" fill="#2B495E"/>
        <path d="M816.6 340.2l-54.5 47.4-76.4-5.8-98.6 102.5 92.8-121.9 79.7 3.4 37.7-47.3 19.3 21.7z" fill="#263D4B"/>
        <path d="M532 338.2l-40.9-12.4-25.4 47.1 31.6-30.3 34.7-4.4zM844.1 327.6l28.4 59.5-16-10.7-9.2 25-22.8-28.5-45.4 22.7 65-68zM627.2 72.3l6 1.9 20.8 37.9-9.5-13.7-9-1.3-8.3-8-12.1 22.2 12.1-39z" fill="#DAF0F5" opacity=".74"/>
        <path d="M626.9.5v24.1l41.9-12.1-41.9-12z" fill="#D44C3D"/>
        <path d="M487.5 317.9l-18.9 73.2 28.3-31.7-28.3 83-15.4-34.2-35.8 66.7 35.2-22.1 28.7 45.8 15.6-11.6 15.2 22.4H378.8l-35.2-26-19.9 26h-55.6l65.5-70.9 20.7 8.3 34.4-36.7 21 3.6 77.8-95.8zM840.4 319.9l32.1 67.2-16-10.7 37.9 69 12.4-30.8 31 58.5-23.1-5.4-10.8 41.7h110.6L906.7 359.7l.5 29.6-66.8-69.4z" fill="#263D4B"/>
        <path d="M528.2 542.7c-1 0-1.9-.4-2.5-1.3-1-1.4-.8-3.4.7-4.4L623 421.2 560.1 352c-.6-.7-.9-1.6-.8-2.5.1-.9.6-1.7 1.4-2.3L669 278l-40.2-63.6c-.2-.4-.4-.8-.5-1.2l-1.1-135.3c-.3-1.7.9-3.4 2.6-3.6 1.7-.3 3.4.9 3.6 2.6l1 134.7 41.6 65.7c.9 1.5.5 3.4-1 4.4l-107.8 68.9 62.8 69c.6.7.9 1.5.8 2.4-.1.9-.6 1.7-1.3 2.2l-99.4 117.9c-.6.4-1.2.6-1.9.6z" opacity=".12" fill="#DAF0F5"/>
        <path d="M634.2 421.3c0 5.6-4.5 10.1-10.1 10.1s-10.1-4.5-10.1-10.1 4.5-10.1 10.1-10.1c5.5 0 10.1 4.5 10.1 10.1zM575.6 349.8c0 5.3-4.3 9.6-9.6 9.6s-9.6-4.3-9.6-9.6 4.3-9.6 9.6-9.6 9.6 4.3 9.6 9.6zM681.3 278.9c0 4.5-3.6 8.1-8.1 8.1-4.4 0-8.1-3.6-8.1-8.1s3.6-8.1 8.1-8.1c4.5.1 8.1 3.7 8.1 8.1z" fill="#5D7886"/>
        <path d="M623.9 159.7l-23.2 51.8 11.6-5.3-32.1 64.7-9.7-3.5-6.8 30.6-31.7 31.5L581.4 224l42.5-64.3zM598.5 272.1l-6.4 2.2 8.5 14.4 18.5-23.2-20.6 6.6z" fill="#9FB3A9"/>
        <path d="M850.4 418.1l15.4 20.4 7.7 35.8-23.1-27.5v-28.7zM760.5 446.2l-2.2-31.6-127.7 64.5 129.9-32.9z" fill="#263D4B"/>
        <path d="M537.6 62.3H308.4C306.5 48.6 319.3 36 332 34.9c7.2-1.1 14.8 1 22 5 4-9.6 12.7-16.6 25-16.6 12.5-.7 27.1 9 40.2 21 1.5-12.1 9.6-20.6 25.7-19.6 11.8.7 22.5 7.9 32.2 16.7 6.9-18.9 51.3 8.3 60.5 20.9zM923 146.4H712.8c-4.9-6.8-2.3-15.3 1.9-18.9 11.6-10 26.2-7 39.4.5 3.5-10.1 16.9-16.9 29.3-13.5 10.2 2.8 17.6 7.6 24 13.7 5.6-12.3 34.1-8.9 51.5.3 7.7-12.7 54.2 4.4 64.1 17.9z" fill="#DAF0F5" opacity=".68"/>
        <path d="M681.8 192.1l32.2 44.7 21.6 30.7 39.1 38.6-27.4-16.1-22.7 11.2-31.4-43.1-11.4-66z" fill="#263D4B"/>
        <path d="M629.2 160.1l-3.5-1.3 16.1-44.5 3.6 1.3-16.2 44.5z" fill="#E79B59"/>
        <path d="M627.1 159.3l-1.4-.5 16.1-44.5 1.4.5-16.1 44.5z" fill="#D7864A"/>
        <path d="M664.1 133.4s-4.4-8.8-14.4-14.2c-12.6-6.7-29.5-4.4-29.5-4.4l1.8 3.5s4.7-.3 9 .8c5.8 1.4 9.3 4.9 9.3 4.9s6.4 0 13.3 2.5c6 2.1 10.5 6.9 10.5 6.9z" fill="#93ABBD"/>
        <path d="M645.1 117.5c.2.1.4.1.5.2l.2.1.2.1c.1.1.3.1.4.2.1.1.3.1.4.2.1.1.3.1.4.2.3.1.6.3.8.4.6.3 1.1.6 1.6.9 1 .6 2 1.2 2.9 1.9.2.2.4.3.7.5.2.2.4.3.6.5.2.2.4.3.6.5.2.2.4.3.6.5.8.6 1.4 1.2 2 1.7.6.5 1.1 1 1.5 1.4l.9.9.3.3-.3-.3c-.2-.2-.5-.5-1-.9-.4-.4-.9-.8-1.5-1.3s-1.3-1-2.1-1.6c-.8-.6-1.6-1.2-2.5-1.8-.9-.6-1.9-1.2-2.9-1.8-1-.6-2.2-1.1-3.3-1.6-.1-.1-.3-.1-.4-.2l-.2-.1-.2-.1c-.1-.1-.3-.1-.4-.2h-.2l-.2-.1c-.2-.1-.3-.1-.5-.2l-.2-.1c-.1 0-.2 0-.2-.1l-.9-.3c-1.2-.4-2.5-.7-3.7-1-.2 0-.3-.1-.5-.1s-.3-.1-.5-.1-.3-.1-.5-.1-.3-.1-.5-.1l-1.8-.3c-1.2-.2-2.3-.3-3.4-.4-.3 0-.5 0-.8-.1h-.8c-.5 0-1 0-1.5-.1h-2.6c-.8 0-1.5.1-2 .1-.6 0-1 .1-1.3.1-.3 0-.5.1-.5.1s.2 0 .5-.1c.3 0 .7-.1 1.3-.2.6-.1 1.2-.1 2-.2s1.7-.1 2.6-.1H631.8c1.1.1 2.3.2 3.5.3l1.8.3c.2 0 .3 0 .5.1.2 0 .3.1.5.1s.3.1.5.1.3.1.5.1c1.2.3 2.5.6 3.7 1l.9.3c.1 0 .2 0 .2.1l.2.1c.2.1.3.1.5.2l.2.1h.3z" fill="#E9ECF0"/>
        <path d="M515.9 236.3l-2.4 2.9 2.6 2.9 4.3-.1s-1.7-3.5-4.5-5.7z" fill="#966945"/>
        <path d="M514.1 239.9l-.6-.7 2.4-2.9.3 3.9-2.1-.3z" fill="#875D3D"/>
        <path d="M493.5 243.1l3.6 1.1-.5 3.8-3.7 2.3s-.5-3.8.6-7.2z" fill="#966945"/>
        <path d="M497 245l.1-.9-3.6-1 2 3.4 1.5-1.5z" fill="#875D3D"/>
        <g transform="translate(490 238)">
            <mask id="b" fill="#fff">
                <use xlink:href="#a"/>
            </mask>
            <path d="M38.7 8.4c-5.9-6.9-16-9.7-24.4-7.2C5.9 3.7 1.8 11.5.7 20.4c-1.1 9 1.5 17 1.5 17 9 6.7 25.3 3.2 25.3 3.2S43.2 30.7 47 20.3c0 0-2.4-5-8.3-11.9z" fill="#966945" mask="url(#b)"/>
        </g>
        <g transform="translate(490 238)">
            <mask id="d" fill="#fff">
                <use xlink:href="#c"/>
            </mask>
            <path d="M-1 11.1l5.3-1.9s-4.8 13.7 2.3 25c0 0 9.1 4.7 17.5 4L6.2 42.5l-6.9-3.6-.3-27.8z" fill="#000" opacity=".05" mask="url(#d)"/>
        </g>
        <g transform="translate(515 254)">
            <ellipse fill="#875D3D" transform="rotate(-106.74 8.475 6.47)" cx="8.475" cy="6.471" rx="3.3" ry="6.9"/>
            <ellipse fill="#000" transform="rotate(-106.74 8.31 5.858)" cx="8.311" cy="5.858" rx="3.3" ry="6.9"/>
        </g>
        <g transform="translate(512 257)">
            <path d="M3 1.6c.2.8-.2 1.6-1 1.9-.8.2-1.6-.2-1.9-1-.2-.8.2-1.6 1-1.9.8-.2 1.6.2 1.9 1z" fill="#B48363"/>
            <circle fill="#000" cx="1.9" cy="2.2" r="1.1"/>
            <circle fill="#FFF" cx="2.2" cy="2.3" r=".4"/>
        </g>
        <path d="M526.9 254.9c.2.8 1.1 1.2 1.9 1 .8-.2 1.2-1.1 1-1.9-.2-.8-1.1-1.2-1.9-1-.7.3-1.2 1.1-1 1.9z" fill="#B48363"/>
        <g transform="translate(527 253)">
            <circle fill="#000" cx="1.4" cy="1.9" r="1.1"/>
            <circle fill="#FFF" cx="1" cy="2.2" r=".4"/>
        </g>
        <g transform="translate(512 285)">
            <mask id="f" fill="#fff">
                <use xlink:href="#e"/>
            </mask>
            <path d="M24.6 3.6s3.3 6.8-5.4 14.5h-2.8S2.2 16.9.9 6.2c0-.1 14.7-10.3 23.7-2.6z" fill="#875D3D" mask="url(#f)"/>
        </g>
        <g transform="translate(512 285)">
            <mask id="h" fill="#fff">
                <use xlink:href="#g"/>
            </mask>
            <path d="M24.7 3c0 .2 1.7 13.3-13.3 14.1L24.7 3z" fill="#000" opacity=".05" mask="url(#h)"/>
        </g>
        <path d="M534.3 302.5c0 .7-1.6.7-3.1.7s-2.8.1-2.8-.5c0-.7 1.6-1.6 3.1-1.6 1.5.1 2.8.8 2.8 1.4z" fill="#7A5436"/>
        <path d="M499.6 277.8c-.5 6.4-4.8 6.2-5.2 12.9-.2 4 6.7 13.4 23.4 12.2 16.7-1.2 20.2-9.9 18.1-18.6-2.1-8.6-9.7-17.5-9.7-17.5s-26.2 4.7-26.6 11z" fill="#B48363"/>
        <g>
            <g transform="translate(494 278)">
                <mask id="j" fill="#fff">
                    <use xlink:href="#i"/>
                </mask>
                <path d="M21.7 13.5c-1.3-5.5-9.2-7.1-9.2-7.1L11.8.2S5.4 1.7 4 4.1C2.5 6.5 0 8.4.4 13.4c.9 10.7 9.2 12.4 9.2 12.4h4c7.5-4.3 8.5-10.8 8.1-12.3z" fill="#966945" mask="url(#j)"/>
            </g>
            <g transform="translate(494 278)">
                <mask id="l" fill="#fff">
                    <use xlink:href="#k"/>
                </mask>
                <path d="M.4 3.9l3.7 2.4S-.1 18.2 9.6 25.5l-7.5.2-5.6-17.1L.4 3.9z" fill="#000" opacity=".05" mask="url(#l)"/>
            </g>
            <path d="M509.7 303.2c0 .7-1.6.7-3.3.7-1.6 0-2.9.1-2.9-.5 0-.7 1.6-1.6 3.3-1.6 1.7 0 2.9.8 2.9 1.4z" fill="#7A5436"/>
        </g>
        <g>
            <path d="M494.7 287.3s3.9-.8 4.6-.8c.7 0 .6-.5.6-.5l-.8-.6-4.4 1.9z" fill="#000" opacity=".1"/>
            <g transform="translate(494 268)">
                <mask id="n" fill="#fff">
                    <use xlink:href="#m"/>
                </mask>
                <path d="M5.6 7.2s-2.4 4.2-2.9 6c-.5 1.8-2 4.6-2 5 0 .4-.2.4-.2.7 0 .3.3.5.3.5s7.6-2.6 14.4-3.1c6.8-.5 10.9-4.6 15.5-5 4.6-.5 6 .3 6 .3s.2-.5 0-.7c0 0 .2-.4.1-.5-.1-.1-.4-.2-.4-.2s.1-3.6-5.5-9.9C30.8.1 15 .7 5.6 7.2z" fill="#BB3331" mask="url(#n)"/>
            </g>
            <g transform="translate(494 268)">
                <mask id="p" fill="#fff">
                    <use xlink:href="#o"/>
                </mask>
                <path d="M8.5 3.9l6.4-1.6s-2.4 7-2.4 7.2c0 .2 1.8 4.6 1.8 4.6l1.5 2.3L.1 19.8l-1.2-2.9 9.6-13z" fill="#000" opacity=".1" mask="url(#p)"/>
            </g>
            <g transform="translate(494 268)">
                <mask id="r" fill="#fff">
                    <use xlink:href="#q"/>
                </mask>
                <path d="M.4 13.9l.3 2.5s-.1 1.3 1 .9 3.8-1.2 3.7-1c-.1.2-4.7 2-5.1 2.3-.4.3.1-4.7.1-4.7z" fill="#000" opacity=".1" mask="url(#r)"/>
            </g>
        </g>
        <path d="M544.8 286.6s-1.5 1.2-2.6 1.4c-1.1.2-1.7-.3-1.7-.3l4.3-1.1z" fill="#966945"/>
        <g>
            <g fill="#000" opacity=".1">
                <path d="M499.4 287.1s6.1 9.3 15.2 8.5l.1.3 4.7-.7s3.1.4 3.7.1l14-5.4-.2-.8c-.3-.9-.7-2.3-1-2.4-.6-.3-36.5.4-36.5.4zM506.7 268.8l-.8.8.8 3.5 2.6-.8-2.6-3.5z"/>
            </g>
            <path fill="#B87D4A" d="M555.616 283.372L514.63 296.04l-9.48-30.668 40.987-12.67z"/>
            <path fill="#D8995C" d="M555.57 283.3l-30.67 9.48-9.478-30.67 30.668-9.478z"/>
            <path d="M527.6 273.5l16.9-5.2 1.8 6-8.4 2.6.3 1-3.7 1.2-.3-1-4.7 1.5-1.9-6.1zm2.5 4.7l1.9-.6-.9-3 .9-.3.9 3 .9-.3-1.2-3.9-3.7 1.2 1.2 3.9zm3.5-5.4l1.5 5 1.9-.6-.3-1 1.9-.6-1.2-4-3.8 1.2zm2.1.4l1-.3.6 2-1 .3-.6-2zm2.6-1.9l1.2 3.9 1.9-.6-.9-3 .9-.3.9 3 .9-.3-.9-2.9.9-.3.9 2.9.9-.3-1.2-3.9-5.5 1.8z" fill="#1C1510"/>
            <path fill="#E1B283" d="M538.172 263.466l-8.025 2.48-2.363-7.643 8.026-2.48z"/>
            <path d="M507.5 272.9s2.3 1 4.2 4.3c0 0 .2.2.1.4l.7 1.3v.2s1.8 1.7 4.7 7.3c2.9 5.6 5.4 7.1 5.4 7.1l-13.3-6.3-1.8-14.3z" fill="#000" opacity=".1"/>
        </g>
        <g>
            <g transform="translate(496 270)">
                <mask id="t" fill="#fff">
                    <use xlink:href="#s"/>
                </mask>
                <path d="M29.6 25.9L12.7.7 4.3-3.7-.1-1.3-1 11.6l3.3 8.3 5.6 5c-.1.1 16.8 5.9 21.7 1z" fill="#875D3D" mask="url(#t)"/>
            </g>
            <g transform="translate(496 270)">
                <mask id="v" fill="#fff">
                    <use xlink:href="#u"/>
                </mask>
                <path d="M27.1 28.4l.5-4.3s-24 1-24.9-19.6l-4.1.3L0 18.2c0 .1 14.6 12.2 27.1 10.2z" fill="#000" opacity=".05" mask="url(#v)"/>
            </g>
            <g>
                <g transform="translate(498 277)">
                    <mask id="x" fill="#fff">
                        <use xlink:href="#w"/>
                    </mask>
                    <path d="M13-1l2 3.5S8.6 10.9 1.2 10c0 0-.8-1.1-.9-1.3C.3 8.8 9.1 5.4 13-1z" fill="#A52828" mask="url(#x)"/>
                </g>
                <g transform="translate(498 277)">
                    <mask id="z" fill="#fff">
                        <use xlink:href="#y"/>
                    </mask>
                    <path d="M5 10S3.5 8.3 3.3 7.6c-.2-.8-3 .4-3 .4l-.2.7.6 1.8L5 10z" fill="#000" opacity=".1" mask="url(#z)"/>
                </g>
                <g>
                    <g transform="translate(495 270)">
                        <mask id="B" fill="#fff">
                            <use xlink:href="#A"/>
                        </mask>
                        <path d="M17.2 9.2s-6 7.7-13.4 7.3c0 0-.7.1-.8 0-.2-.2-5.8-11.1 1.6-15.3C11.9-3 17.2 8.1 17.2 8.1s.1.9 0 1.1z" fill="#CA3836" mask="url(#B)"/>
                    </g>
                    <g transform="translate(495 270)">
                        <mask id="D" fill="#fff">
                            <use xlink:href="#C"/>
                        </mask>
                        <path d="M7.7 16.4S1.8 10.9 1.2 6.2C.6 1.5-2.2 8.4-2.2 8.4l3.6 6.3 2.2 2.5 4.1-.8z" fill="#000" opacity=".1" mask="url(#D)"/>
                    </g>
                </g>
            </g>
        </g>
        <path d="M628.6 203.5c-.6 0-2 1.4-2.4 1.8 2.2-5.8 0-11.1-4.5-14.2-.8-1.3-1.5-2-1.5-2 .1-.2-.1-.3-.1-.5-.6-2.3-1.2-4.3-1.9-6h-1.5c-.1-.1-.1-.3-.2-.5l1.4-.4c-.1-.4-.3-.7-.4-1 2.9-1.1 5.2-2.7 5.3-2.8.1-.1.1-.2.1-.3.3-.2.7-.6 1-.8.9-.8 1.8-1.8 2.7-3 1.2-1.4 6.8-13.9 3.3-22.1-2.2 1.1-3.2 2.6-5.6 4.3v-.6s-1.6-3.8-8.4-9.7c-1.7-1.5-4.5-2.6-6.8-3.6L605.8 269c1.9 0 6.8-.3 6.8-.3l1 .2h1.6c.3-.2.6-.2.8-.5 6.3-2.2 10.8-21.1 4.3-24.3 0-.4 0-.9-.1-1.3h.1s-.2-4.6-1.4-8.6c4.1-1.8 6.5-6.6 5.9-6.3.2-.3.3-.5.3-.6 2.2-4 4.1-13.3 1.3-19.7l.5-.7v-.1c1.1-1.2 2.2-3.3 1.7-3.3z" fill="#000" opacity=".1"/>
        <g>
            <g transform="translate(573 193)">
                <mask id="F" fill="#fff">
                    <use xlink:href="#E"/>
                </mask>
                <ellipse fill="#875D3D" mask="url(#F)" cx="7.579" cy="8.711" rx="11" ry="11.4"/>
            </g>
            <g transform="translate(573 193)">
                <mask id="H" fill="#fff">
                    <use xlink:href="#G"/>
                </mask>
                <path d="M8.8-1.2L3.9 4S.3 11.6 6.3 18.1l6.2-3.3-3.7-16z" fill="#000" opacity=".05" mask="url(#H)"/>
            </g>
            <g transform="translate(573 193)">
                <mask id="J" fill="#fff">
                    <use xlink:href="#I"/>
                </mask>
                <path d="M-.7 10l1.8.6S3.5 14 4.2 17c-.4-.2-2.7-.3-2.7-.3L-.7 10z" fill="#704C35" mask="url(#J)"/>
            </g>
            <g transform="translate(615 191)">
                <mask id="L" fill="#fff">
                    <use xlink:href="#K"/>
                </mask>
                <ellipse fill="#875D3D" mask="url(#L)" cx="4.838" cy="11.312" rx="11" ry="11.4"/>
            </g>
            <g transform="translate(615 191)">
                <mask id="N" fill="#fff">
                    <use xlink:href="#M"/>
                </mask>
                <path d="M1.6.7l3.6.6s7.6 8.3 1.2 17.3l-8.6-1.9L1.6.7z" fill="#000" opacity=".05" mask="url(#N)"/>
            </g>
            <g transform="translate(615 191)">
                <mask id="P" fill="#fff">
                    <use xlink:href="#O"/>
                </mask>
                <path d="M13.1 12.6l-1.8.6s-2.4 3.4-3.1 6.4c.4-.2 2.7-.3 2.7-.3l2.2-6.7z" fill="#704C35" mask="url(#P)"/>
            </g>
            <g>
                <g transform="translate(576 173)">
                    <mask id="R" fill="#fff">
                        <use xlink:href="#Q"/>
                    </mask>
                    <path fill="#966945" mask="url(#R)" d="M-3.5-4.3H49v46.4H-3.5z"/>
                </g>
                <g transform="translate(576 173)">
                    <mask id="T" fill="#fff">
                        <use xlink:href="#S"/>
                    </mask>
                    <path d="M-2.7 16.4s16.1-8.2 34.2-.7c0 0-12.1-7-26.1-3.7l-8.1 4.4z" fill="#000" opacity=".1" mask="url(#T)"/>
                </g>
                <g transform="translate(576 173)">
                    <mask id="V" fill="#fff">
                        <use xlink:href="#U"/>
                    </mask>
                    <path d="M35.2-1.7l.1 3.7s3.2 9.5 2.9 15.2c0 0 4.6 13.7-.8 17.8-5.4 4.1 6.2 3.2 6.2 3.2l7.2-6.2-1.5-13.8L35.2-1.7z" fill="#000" opacity=".05" mask="url(#V)"/>
                </g>
            </g>
            <g fill="#000" opacity=".1">
                <path d="M623.2 206.8l.2-.5-4.8 2 .5 2.2 4.1-3.7z"/>
                <path d="M623.4 206.3s1.7 1.1 2.2 2.3l-.7 1.1-1.7-.7.2-2.7"/>
            </g>
            <g>
                <g transform="translate(604 152)">
                    <mask id="Y" fill="#fff">
                        <use xlink:href="#X"/>
                    </mask>
                    <path d="M25.1-2.1L-.3 18.3l-3.5 9.3 3.1 4.2 13.5-.7 8.2-4.5 4.5-6.4s5.3-17.8-.4-22.3z" fill="#875D3D" mask="url(#Y)"/>
                </g>
                <g transform="translate(604 152)">
                    <mask id="aa" fill="#fff">
                        <use xlink:href="#Z"/>
                    </mask>
                    <path d="M26.6-.2l-.7.2s.2 24.6-21 28.2l.9 4.2 13.8-3.2s10.7-16.7 7-29.4z" fill="#000" opacity=".05" mask="url(#aa)"/>
                </g>
                <g transform="translate(611 164)">
                    <mask id="ac" fill="#fff">
                        <use xlink:href="#ab"/>
                    </mask>
                    <path d="M.5 1.9L2 .8s9.3 5.1 9.3 12.9c0 0-1 .9-1.2 1.1 0-.1-2.5-9.7-9.6-12.9z" fill="#A52828" mask="url(#ac)"/>
                </g>
                <g transform="translate(611 164)">
                    <mask id="ae" fill="#fff">
                        <use xlink:href="#ad"/>
                    </mask>
                    <path d="M10.8 9.8s-1.5 1.8-2.3 2.1c-.8.3.8 3 .8 3l.8.2 1.8-.8-1.1-4.5z" fill="#000" opacity=".1" mask="url(#ae)"/>
                </g>
                <g>
                    <g transform="translate(603 165)">
                        <mask id="ag" fill="#fff">
                            <use xlink:href="#af"/>
                        </mask>
                        <path d="M9 .5s8.7 5.2 9.3 13c0 0 0 .2-.1.3-.2.3-10.6 7.9-16 .8C-3.1 7.5 8.5.5 8.5.5s.4-.1.5 0z" fill="#BB3331" mask="url(#ag)"/>
                    </g>
                    <g transform="translate(603 165)">
                        <mask id="ai" fill="#fff">
                            <use xlink:href="#ah"/>
                        </mask>
                        <path d="M17.8 9.4s-3.6 3.5-8.4 4.7c-4.8 1.2 1.5 4.3 1.5 4.3l5.9-2.3 2.4-2.6-1.4-4.1z" fill="#000" opacity=".1" mask="url(#ai)"/>
                    </g>
                </g>
                <g>
                    <path d="M622.8 156.4s-1.3 19.3-14.6 22.5l-5.5-10.5 20.1-12z" fill="#000" opacity=".1"/>
                    <path d="M576.3 146.9l4.1.8-.2 4.3-3.9 2.9c0 .1-.9-4.1 0-8z" fill="#966945"/>
                    <path d="M580.4 148.7l.1-.9-4.2-.9 2.5 3.6 1.6-1.8z" fill="#875D3D"/>
                    <g transform="translate(572 139)">
                        <mask id="ak" fill="#fff">
                            <use xlink:href="#aj"/>
                        </mask>
                        <path d="M1.2 23.3C2 14.2 7.4 5.2 16.5 1.6c9.1-3.6 19.2-.8 26 5.2 6.8 6 8.4 9.9 8.4 9.9s0 15.3-19.2 23C12.5 47.3 2 36.2 2 36.2s-1.6-3.8-.8-12.9z" fill="#966945" mask="url(#ak)"/>
                    </g>
                    <g transform="translate(572 139)">
                        <mask id="am" fill="#fff">
                            <use xlink:href="#al"/>
                        </mask>
                        <path d="M.5 36.4l1.4-.1s10.8 6.3 24.4.5c13.6-5.8 24.5-20 24.5-20l.9 2.6-5.2 13.9-19.3 9.4s-20.7 1-20.8.9c-.1-.1-5.9-7.2-5.9-7.2z" fill="#000" opacity=".05" mask="url(#am)"/>
                    </g>
                    <g>
                        <path d="M600.7 137.2l-2.4 3.4 3.2 3 4.8-.6c-.1.1-2.3-3.6-5.6-5.8z" fill="#966945"/>
                        <path d="M599 141.3l-.7-.6 2.4-3.5.6 4.3-2.3-.2z" fill="#875D3D"/>
                    </g>
                </g>
                <g>
                    <path d="M583.4 183.8c-.1.2-3.2 4.9-3.2 4.9s5.4-2.4 12.7-2.4c7.3 0 18 3.7 19 4 1 .3.2-3.2.2-3.2l-28.7-3.3z" fill="#000" opacity=".1"/>
                    <g transform="translate(580 173)">
                        <mask id="ao" fill="#fff">
                            <use xlink:href="#an"/>
                        </mask>
                        <path d="M4.7 4.4S16.6-1.5 31.3 2c0 0 4.5 2 7.8 15.2 0 0-3.1 1.2-6.3.3C29.6 16.6 14 8.9.2 15.6c0 0-.1-.4 0-.6.1-.3.9-1 .9-1.2 0 0-.2-.2-.1-.3.1-.1.3-.1.4-.4.1-.3 1.5-3.1 1.7-4.3.2-1.2 1.4-4.3 1.6-4.4z" fill="#CA3836" mask="url(#ao)"/>
                    </g>
                    <g transform="translate(580 173)">
                        <mask id="aq" fill="#fff">
                            <use xlink:href="#ap"/>
                        </mask>
                        <path d="M31.2 3.2s3.3 5.7 2.7 7.2c-.6 1.5-3.3 2.2-.5 3.1 2.8.9 4.4 2.7 3.1 2.9-1.4.2-7-2.1-9-2.2-2-.1 5.8 2.9 6.8 3 1 .1 4.6.2 6.1-.9S34.7 2.9 34.7 2.9l-3.5.3z" fill="#000" opacity=".1" mask="url(#aq)"/>
                    </g>
                    <g transform="translate(580 173)">
                        <mask id="as" fill="#fff">
                            <use xlink:href="#ar"/>
                        </mask>
                        <path d="M1 12.7c.1-.2 10.9-6.3 22.9-2.4 0 0-8.6-2-22.5 2.9s-2.2 1.2-2.2 1.2l1.9-.6s13.7-6.2 28-.1c0 0-14.8-5-29.4 1l-6.4 1.6s1.6-2.6 1.8-2.6c.2 0 5.9-1 5.9-1z" fill="#000" opacity=".1" mask="url(#as)"/>
                    </g>
                    <g transform="translate(580 173)">
                        <mask id="au" fill="#fff">
                            <use xlink:href="#at"/>
                        </mask>
                        <path d="M3.6 4.9l-.5 2.6s3.4-4 11.6-4.6c8.2-.6 19.4 1.5 19.4 1.5L32 2S23.2.1 15.1.7c-8 .4-11.5 4.2-11.5 4.2z" fill="#000" opacity=".1" mask="url(#au)"/>
                    </g>
                    <path d="M583.9 177.6l-.3-.2s2.6-3.7 9.9-4.4c7.4-.7 17 1 18.5 1.4l-18.5.8-9.6 2.4z" fill="#000" opacity=".1"/>
                    <path d="M583.6 177.4l-.5 2.6s3.4-4 11.6-4.6c8.2-.6 19.4 1.5 19.4 1.5l-2.1-2.4s-8.8-1.9-16.9-1.3c-8 .5-11.5 4.2-11.5 4.2z" fill="#D74141"/>
                </g>
            </g>
            <path d="M620.4 209.1c-.8-3.6-1.4-4.6-4-7.6-.2-1.1-.6-2.3-1.1-3.4l-1.7.7c-3-2.6-6.7-4.5-10.8-5.2-4.1-.8-8.2-.3-12 1l-1.3-1.2c-.9.9-1.6 1.9-2.3 2.8-3.5 1.9-8.9 7.2-9.9 10.4-2.6 8.6 45 11.4 43.1 2.5z" fill="#000" opacity=".1"/>
        </g>
        <g>
            <g transform="translate(571 250)">
                <mask id="aw" fill="#fff">
                    <use xlink:href="#av"/>
                </mask>
                <ellipse fill="#966945" mask="url(#aw)" cx="6.534" cy="7.863" rx="13" ry="11.4"/>
            </g>
            <g transform="translate(571 250)">
                <mask id="ay" fill="#fff">
                    <use xlink:href="#ax"/>
                </mask>
                <path d="M5.2-3.4l-4 5.6s1 9.6 9.9 12L16 9 5.2-3.4z" fill="#000" opacity=".05" mask="url(#ay)"/>
            </g>
            <g transform="translate(571 250)">
                <mask id="aA" fill="#fff">
                    <use xlink:href="#az"/>
                </mask>
                <path d="M-1.4 13.9l2.1-.5s4 1.6 6 4c-.5.1-2.9 1.2-2.9 1.2l-5.2-4.7z" fill="#7A5436" mask="url(#aA)"/>
            </g>
        </g>
        <g>
            <g transform="translate(603 252)">
                <mask id="aC" fill="#fff">
                    <use xlink:href="#aB"/>
                </mask>
                <ellipse fill="#966945" mask="url(#aC)" cx="7.958" cy="7.275" rx="13" ry="11.4"/>
            </g>
            <g transform="translate(603 252)">
                <mask id="aE" fill="#fff">
                    <use xlink:href="#aD"/>
                </mask>
                <path d="M12.2-3.5l2.5 6.4s-3.3 9-12.5 9.2l-3.5-6.3 13.5-9.3z" fill="#000" opacity=".05" mask="url(#aE)"/>
            </g>
            <g transform="translate(603 252)">
                <mask id="aG" fill="#fff">
                    <use xlink:href="#aF"/>
                </mask>
                <path d="M14.3 14.9l-1.9-1s-4.2.6-6.8 2.4c.5.2 2.5 1.9 2.5 1.9l6.2-3.3z" fill="#7A5436" mask="url(#aG)"/>
            </g>
        </g>
        <g>
            <g transform="translate(574 225)">
                <mask id="aI" fill="#fff">
                    <use xlink:href="#aH"/>
                </mask>
                <path fill="#966945" mask="url(#aI)" d="M-4.2-6.1h52.5v46.4H-4.2z"/>
            </g>
            <g transform="translate(574 225)">
                <mask id="aK" fill="#fff">
                    <use xlink:href="#aJ"/>
                </mask>
                <path d="M-5.7 21.9s3.9-3.5 10.4-6c6.8-2.6 16.2-4 26.5.7C51.3 25.7 26 43.3 26 43.3l-23.1-3-8.6-18.4z" fill="#B48363" mask="url(#aK)"/>
            </g>
            <g transform="translate(574 225)">
                <mask id="aM" fill="#fff">
                    <use xlink:href="#aL"/>
                </mask>
                <path d="M40.5 7s2.2 14.4-.3 18.9l6.3-4.5S43.7 8.1 42.7 6.5l-2.2.5z" fill="#000" opacity=".05" mask="url(#aM)"/>
            </g>
        </g>
        <g>
            <g transform="translate(600 206)">
                <mask id="aO" fill="#fff">
                    <use xlink:href="#aN"/>
                </mask>
                <path d="M4.9 20.2S14.8 7 23.4.3c6 7.6 1.8 20.5.9 22.3-2.7 5-4 7.4-14.9 11.5-16.9 6.4-4.5-13.9-4.5-13.9z" fill="#875D3D" mask="url(#aO)"/>
            </g>
            <path d="M620.7 228.5s2.1 1.3 2.8 1.5c0 0 .2-.1 0 .5s-2.5 4.8-6.7 6.3l-3.5-3.3 5.5-4.9h1.9v-.1z" fill="#BB3331"/>
            <path d="M620.9 227.8s2.1 1.3 2.9 1.5l-.3.6s-1.5-.3-2.6-1.1c-1.1-.7 0-1 0-1z" fill="#A52828"/>
            <path d="M622.8 214.6c-1.3-4.6-3.9-9-7.5-12.3-3.2-3-39.5 30.6-19.2 34.3 20.3 3.8 28.5-9.2 28.5-9.2s.8-4.1-1.8-12.8z" fill="#000" opacity=".05"/>
            <g transform="translate(574 212)">
                <mask id="aQ" fill="#fff">
                    <use xlink:href="#aP"/>
                </mask>
                <path d="M16.4 10.5S2-.9 1.7 1.1c0 0-3.6 8.1 2.8 17.9 9.9 15.2 11.9-8.5 11.9-8.5z" fill="#80583B" mask="url(#aQ)"/>
            </g>
            <g transform="translate(574 212)">
                <mask id="aS" fill="#fff">
                    <use xlink:href="#aR"/>
                </mask>
                <path d="M-1.9 7.7s4.6 11.2 14.2 13.7l1.3-13.7-3-8.5-13.7 2 1.2 6.5z" fill="#000" opacity=".05" mask="url(#aS)"/>
            </g>
            <path d="M581.3 226.4s-2 1.5-4.4 1.7v.4c0 .4 2.7 5.7 4.4 6.4l2.6-4.7v-3.9l-2.6.1z" fill="#BB3331"/>
            <path d="M580.9 225.8s-2.7 1.1-4.4 1.3c0 0 .2.7.4.9 0 0 2 0 4.4-1.4l-.4-.8z" fill="#A52828"/>
            <path d="M575.8 223.2s2.6 7.7 6.6 9.7l1.6-4.9-8.2-4.8z" fill="#000" opacity=".05"/>
            <path d="M582.9 230.4s-3.9 7.9-4.5 10.4c0 0-.6 0-.6.4v.4s-.2.1-.3.7c-.2.6-.4.9-.4.9s6-1.8 14.1-1.8 17.6 4.8 20.3 4.8c2.7 0 7.6-1 7.6-1s-.2-8.4-3.1-12.3c-.2 0-10-7.1-33.1-2.5z" fill="#000" opacity=".1"/>
            <g>
                <g transform="translate(576 228)">
                    <mask id="aU" fill="#fff">
                        <use xlink:href="#aT"/>
                    </mask>
                    <path d="M6.9 2.1S3 10 2.4 12.5c0 0-.6 0-.6.4v.4s-.6.2-.8.8c-.2.6 0 1.2 0 1.2s6-2.1 14.1-2.1S32.7 18 35.4 18c2.7 0 7.8-.7 7.8-.7s-.3-8.7-3.3-12.6c-.1-.1-9.9-7.2-33-2.6z" fill="#CA3836" mask="url(#aU)"/>
                </g>
                <g transform="translate(576 228)">
                    <mask id="aW" fill="#fff">
                        <use xlink:href="#aV"/>
                    </mask>
                    <path d="M27.5 9.5l4 .4-.1 1.3-2-.2v.2l-.9-.1v-.2l-1.1-.1.1-1.3zm.1 1.1h.4l.1-.7h.2l-.1.7h.2l.1-.9-.9-.1v1zm1.2-.8l-.1 1.1h.4v-.2h.4l.1-.9h-.8zm.4.3h.2v.5h-.2v-.5zm.7-.2l-.1.9h.4l.1-.7h.2l-.1.7h.2l.1-.7h.2l-.1.7h.2l.1-.9h-1.2z" fill="#FFF" mask="url(#aW)"/>
                </g>
                <g transform="translate(576 228)">
                    <mask id="aY" fill="#fff">
                        <use xlink:href="#aX"/>
                    </mask>
                    <g mask="url(#aY)" fill="#000" opacity=".1">
                        <path d="M38.7 6.8s1.3 5.3.3 6.6c-1 1.3.1 1.1.8 1.7.7.6-4.9.5-6.4 0-1.4-.5 2.2 1.5 4.7 1.2 2.5-.3-3.1 1.5-6 .8-2.9-.6 5.9 2.6 9.5 1.7 3.6-.9 2.6-1.8 2.6-1.8L42.5 6.1l-3.8.7zM4.4 12.4s11-4 24.9 1.8c0 0-9.4-4.7-17.8-4.5 0 0 2.5.4 4.3.8-.1 0-6.6-.3-11.4 1.9z"/>
                    </g>
                </g>
            </g>
            <path d="M595.3 231.2l-3 3.2 3.9 1.9 4.8-.6-5.7-4.5z" fill="#966945"/>
            <g>
                <path d="M615.3 199.6l-3.9 1.6 1.1 4.2 4.4 2.1s.1-4.3-1.6-7.9z" fill="#966945"/>
                <path d="M611.7 202.2l-.2-1 3.8-1.6-1.7 4-1.9-1.4z" fill="#875D3D"/>
                <path d="M589.6 194.8l3 2.9-2.5 3.5-4.8.4s1.4-4 4.3-6.8z" fill="#966945"/>
                <path d="M592 198.5l.6-.8-3-2.9.2 4.4 2.2-.7z" fill="#875D3D"/>
                <g>
                    <g transform="translate(572 194)">
                        <mask id="ba" fill="#fff">
                            <use xlink:href="#aZ"/>
                        </mask>
                        <path d="M50.1 19.4c-2.5-8.7-9.6-16.5-19.2-18.3-9.6-1.8-19 3-24.5 10.2C.9 18.5.1 22.7.1 22.7s3 15 23.3 18.8c20.3 3.8 28.5-9.2 28.5-9.2s.7-4.2-1.8-12.9z" fill="#966945" mask="url(#ba)"/>
                    </g>
                    <g transform="translate(572 194)">
                        <mask id="bc" fill="#fff">
                            <use xlink:href="#bb"/>
                        </mask>
                        <path d="M-4.2 19.8L0 22.6s10.4 18.8 37.2 18.8c22.8 0-40.8 4.2-40.8 4.2l-.6-25.8z" fill="#000" opacity=".05" mask="url(#bc)"/>
                    </g>
                </g>
                <g transform="translate(591 208)">
                    <ellipse fill="#875D3D" transform="rotate(-79.46 8.303 5.978)" cx="8.303" cy="5.978" rx="3.7" ry="7.7"/>
                    <ellipse fill="#000" transform="rotate(-79.46 8.442 5.3)" cx="8.442" cy="5.301" rx="3.7" ry="7.7"/>
                </g>
                <g>
                    <path d="M592.4 208.3c-.2.9-1.1 1.5-2 1.3-.9-.2-1.5-1.1-1.3-2 .2-.9 1.1-1.5 2-1.3.9.2 1.5 1.1 1.3 2z" fill="#B48363"/>
                    <g transform="translate(589 206)">
                        <circle fill="#000" cx="2.2" cy="1.8" r="1.3"/>
                        <path d="M2.7 1.5c-.1.5-.9.4-.8-.1.1-.5.9-.4.8.1z" fill="#FFF"/>
                    </g>
                    <g>
                        <path d="M607.9 211.2c-.2.9.4 1.8 1.3 2 .9.2 1.8-.4 2-1.3.2-.9-.4-1.8-1.3-2-1-.2-1.8.4-2 1.3z" fill="#B48363"/>
                        <g transform="translate(608 209)">
                            <circle fill="#000" cx="1.3" cy="2.1" r="1.3"/>
                            <path d="M1.6 1.9c-.1.5-.9.4-.8-.1.1-.6.9-.5.8.1z" fill="#FFF"/>
                        </g>
                    </g>
                </g>
            </g>
            <g>
                <g fill="#000" opacity=".1">
                    <path d="M616.9 235s-3 3.3-15.9 3l-.8-1.1-.2.8s-1.8-1.5-3.8-1.5l2.8-.4 14.3-.4 3.6-.4zM581.9 231.9l-.1.5s5.5 4 9.5 4l.8-.9.4.7s2.1-.9 3.5.1l-3.4-2.1-10.7-2.3z"/>
                </g>
                <g transform="translate(595 236)">
                    <path d="M2.8 0s-.6 2.3-.6 2.6L.7 2.3 1.2.4 2 0h.8z" fill="#AA3030"/>
                    <circle fill="#7C2323" cx="1.8" cy="1.3" r=".3"/>
                </g>
                <path d="M596.2 236.3s.8-1.3 2.6-1.3l1.2 1.1-.2 1.1s-1.5-1.4-3.6-.9zM592.9 233.8l.3-.1s2.3.7 3 2.7c0 0-2.8-1.5-3.7-.8l-.6-1 1-.8z" fill="#BB3331"/>
                <path d="M581.7 230.5s3.7 3 10.6 4.3M617.1 233.8s-6.9 3.5-17.3 2.3"/>
            </g>
        </g>
    </g>
</svg>