<svg viewBox="0 0 360 360" xmlns="http://www.w3.org/2000/svg" xmlns:xlink="http://www.w3.org/1999/xlink">
    <defs>
        <clipPath id="clip">
            <circle cx="180" cy="180" r="180"/>
        </clipPath>
        <g id="textcolumn">
            <rect x="0" y="0" width="45" height="35"/>
            <line x1="0" y1="50" x2="45" y2="50"/>
            <line x1="0" y1="62" x2="45" y2="62"/>
            <line x1="0" y1="74" x2="45" y2="74"/>
        </g>
        <style>
            #linework *, #textcolumn * {
                stroke: #516475;
                stroke-width: 2.5px;
                fill: none;
            }
            #lock * {
                stroke: #63abc6;
                fill: none;
                stroke-width: 2.5px;
            }
        </style>
    </defs>
    <g clip-path="url(#clip)">
        <circle cx="180" cy="180" r="180" fill="#5cacd8"/>
        <g id="linework">
            <rect x="215" y="300" width="100" height="22" rx="4" ry="4"/>
            <rect x="235" y="282" width="80" height="18" rx="4" ry="4"/>
            <rect x="160" y="140" width="240" height="142" rx="12" ry="12"/>
            <rect x="175" y="155" width="220" height="114" rx="6" ry="6"/>
            <use x="195" y="175" xlink:href="#textcolumn"/>
            <use x="250" y="175" xlink:href="#textcolumn"/>
            <use x="305" y="175" xlink:href="#textcolumn"/>
            <rect x="190" y="-15" width="150" height="50" rx="9" ry="9"/>
            <rect x="205" y="-15" width="120" height="35" rx="3" ry="3"/>
            <rect x="-15" y="-15" width="160" height="105" rx="30" ry="30"/>
            <line x1="270" y1="35" x2="270" y2="85"/>
            <line x1="260" y1="85" x2="280" y2="85"/>
            <line x1="270" y1="95" x2="270" y2="140"/>
            <line x1="260" y1="95" x2="280" y2="95"/>
            <rect x="-40" y="-15" width="110" height="335" rx="30" ry="30"/>
        </g>
        <circle cx="70" cy="90" r="20" fill="#516475"/>
        <circle cx="70" cy="210" r="50" fill="#34495e"/>
        <g id="lock">
            <rect x="54" y="205" height="30" width="30"/>
            <path d="M54 205 a 15 15 0 0 1 30 0"/>
            <path d="M72.168 217.997l1.64 10.358-9-.086 1.432-10.426s-1.433-1.965-1.433-3.314c0-2.483 2.016-4.5 4.5-4.5 2.483 0 4.5 2.017 4.5 4.5 0 1.398-.615 2.647-1.64 3.466z"/>
        </g>
    </g>
</svg>
