<svg id="Layer_1" data-name="Layer 1" xmlns="http://www.w3.org/2000/svg" viewBox="0 0 23.99 20.64"><defs><style>.cls-1{fill:#98cae5;}</style></defs><title>icon-2</title><path class="cls-1" d="M9.29,25.09a0.5,0.5,0,0,0,.5-0.5V13.29A0.22,0.22,0,0,1,10,13.07h6.8a0.5,0.5,0,0,0,0-1H10a1.22,1.22,0,0,0-1.22,1.22v11.3A0.5,0.5,0,0,0,9.29,25.09Z" transform="translate(-6.81 -8.48)"/><path class="cls-1" d="M20.83,13.07h6.78a0.22,0.22,0,0,1,.22.22v11.3a0.5,0.5,0,1,0,1,0V13.29a1.22,1.22,0,0,0-1.22-1.22H20.83A0.5,0.5,0,0,0,20.83,13.07Z" transform="translate(-6.81 -8.48)"/><path class="cls-1" d="M30.31,26.12H20a0.5,0.5,0,0,0-.5.5l0.07,0.24-1.54.07v-0.3a0.5,0.5,0,0,0-.5-0.5H7.31a0.5,0.5,0,0,0-.5.5v1.2a1.3,1.3,0,0,0,1.3,1.3H29.51a1.3,1.3,0,0,0,1.3-1.3v-1.2A0.5,0.5,0,0,0,30.31,26.12Zm-0.5,1.7a0.3,0.3,0,0,1-.3.3H8.11a0.3,0.3,0,0,1-.3-0.3v-0.7h9.28a0.94,0.94,0,0,0,.91.74h1.61a0.94,0.94,0,0,0,.91-0.74h9.28v0.7Z" transform="translate(-6.81 -8.48)"/><path class="cls-1" d="M16.14,18.15a0.5,0.5,0,0,0-.71.71l3,3a0.5,0.5,0,0,0,.71,0l3-3a0.5,0.5,0,1,0-.71-0.71l-2.16,2.16V9a0.5,0.5,0,1,0-1,0V20.32Z" transform="translate(-6.81 -8.48)"/></svg>