<svg id="Layer_1" data-name="Layer 1" xmlns="http://www.w3.org/2000/svg" viewBox="0 0 23.43 23.43"><defs><style>.cls-1{fill:#f09233;}</style></defs><title>icon-5</title><path class="cls-1" d="M25.31,9.06a0.5,0.5,0,0,0-.66.1l-4.83,5.8a0.5,0.5,0,0,0,.5.81l4.79-1.15-7.28,8.45a0.5,0.5,0,0,0,.2.79l0.68,0.26-3.87,1.61,0.89-3.89,0.55,0.65a0.46,0.46,0,0,0,.4.18,0.5,0.5,0,0,0,.39-0.21l3.32-4.75a0.5,0.5,0,0,0,0-.57,0.49,0.49,0,0,0-.53-0.2l-4,1,6.52-9.62a0.5,0.5,0,0,0-.27-0.76A11.71,11.71,0,1,0,25.31,9.06Zm-6.5,20.46A10.72,10.72,0,1,1,21.12,8.34l-6.38,9.4a0.84,0.84,0,0,0,0,.85,0.85,0.85,0,0,0,.74.43l0.21,0,3.11-.79-2.18,3.12-0.32-.38a0.85,0.85,0,0,0-1.48.36l-1,4.45a0.85,0.85,0,0,0,.17.72,0.86,0.86,0,0,0,1,.25l4.48-1.84a0.85,0.85,0,0,0,0-1.58l-0.37-.14,7.11-8.26A0.84,0.84,0,0,0,26.29,14a0.85,0.85,0,0,0-.77-0.5l-0.2,0-3.77.9,3.57-4.29A10.71,10.71,0,0,1,18.81,29.52Z" transform="translate(-7.09 -7.09)"/></svg>