<svg viewBox="0 0 1330 250" xmlns="http://www.w3.org/2000/svg">
    <path d="M1297 24c-11.48-2.893-25.85 5.487-37.17 7.465-28.26 4.937-64.57-4.716-88.83 10.932-4.67 3.015-10.92 4.806-14 9.603-8.01.565-26.62 11.18-31 18l-53 19.286L1046 80c-9.64-14.72-32.45-12.632-47-10.718-6.666.876-17.213 1.95-17 10.718-12.305 1.89-25.72 20.354-34.424 28.754-3.668 3.54-8.155 9.538-13.576 10.008-16.947 1.47-38.136-5.722-55-8.338-32.24-5-63.3-8.395-95.96-8.39-10.26.004-20.674-1.03-31.04-1.034-4.302-.002-9.264-1.23-13 1-5.6-4.24-17.165-1.99-24-2-17.736-.028-37.47.54-55-2.325-9.13-1.492-22.236-4.442-30-9.524-9.13-5.976-16.26-15.88-26-20.833-5.727-2.912-12.88-.5-19-1.54-4.457-.76-7.557-4.222-12-4.777-6.688-13.092-26.766-19.544-40-22.873-5.92-1.49-15.447-5.923-17 2.873-7.523 2.762-10.417 12.1-17 16.5-7.878 5.264-20.9 5.374-30 6.722-3.674.545-14.025.396-14 4.778l-2-2-10 4c-16.16-3.456-31.075 10.475-44 17.482-11.103 6.018-22.892 8.024-34 14.942-6.124 3.814-16.076 7.463-20 13.576-5.042.105-12.194 3.716-15 8l-35.285 9.938L257 117c-1.657-8.398-19.506-18.56-26-24.285-7.136-6.292-13.763-14.955-22.17-19.615-9.18-5.088-23.156-6.282-33.39-8.174-16.116-2.98-31.86-8.548-48.35-9.675-8.633-.59-16.214 4.707-25.13 3.716-8.816-.98-17.565-12.382-23.96-18.015-2.603-2.292-6.82-7.13-10-3.95l-17 4.582-17-13.594L4 25l-4-3v196h1330V26c-8.5-1.145-26.09-10.22-33-2z" fill="#156684"/>
    <rect x="0" y="205" width="1330" height="52" fill="#145F7C"/>
</svg>
