<svg id="Layer_1" data-name="Layer 1" xmlns="http://www.w3.org/2000/svg" viewBox="0 0 355.14 355"><defs><style>.cls-1{fill:#80bddd;}.cls-2{fill:#6ea2be;}.cls-3{fill:none;}.cls-4{fill:#eeefef;}.cls-5{fill:#9dcded;}.cls-6{fill:#a7a9ac;}.cls-7{fill:#333;}.cls-8{fill:#fff;}</style></defs><title>pressure-tested</title><circle class="cls-1" cx="177.57" cy="177.5" r="176.99"/><path class="cls-2" d="M1,188a177,177,0,0,0,353.22,0H1Z"/><path class="cls-3" d="M53.21,252.38a16.91,16.91,0,0,1,2.58-.79A16.88,16.88,0,0,0,53.21,252.38Z"/><path class="cls-3" d="M42.65,265.08c0-.21.09-0.41,0.14-0.62C42.74,264.67,42.69,264.87,42.65,265.08Z"/><path class="cls-3" d="M52,252.89c0.31-.15.62-0.3,0.94-0.43C52.67,252.59,52.36,252.74,52,252.89Z"/><path class="cls-3" d="M43,263.53c0.06-.21.13-0.42,0.2-0.63C43.15,263.11,43.09,263.32,43,263.53Z"/><path class="cls-3" d="M42.41,266.68c0-.18,0-0.35.07-0.53C42.46,266.33,42.43,266.5,42.41,266.68Z"/><path class="cls-3" d="M46.18,257.5c0.16-.2.34-0.39,0.52-0.59C46.53,257.11,46.35,257.3,46.18,257.5Z"/><path class="cls-3" d="M45,259.21c0.11-.18.22-0.36,0.33-0.53C45.19,258.85,45.09,259,45,259.21Z"/><path class="cls-3" d="M44.19,260.6c0.1-.2.2-0.4,0.3-0.59C44.38,260.2,44.29,260.4,44.19,260.6Z"/><path class="cls-3" d="M47.2,256.37c0.2-.2.41-0.4,0.62-0.59C47.61,256,47.4,256.17,47.2,256.37Z"/><path class="cls-3" d="M48.31,255.33c0.22-.19.45-0.37,0.69-0.55C48.76,255,48.53,255.14,48.31,255.33Z"/><path class="cls-3" d="M50.75,253.58c0.27-.16.55-0.32,0.83-0.47C51.3,253.26,51,253.42,50.75,253.58Z"/><path class="cls-3" d="M43.54,262c0.08-.21.17-0.42,0.26-0.62C43.7,261.62,43.62,261.82,43.54,262Z"/><path class="cls-3" d="M49.5,254.4q0.37-.27.76-0.51Q49.87,254.13,49.5,254.4Z"/><polygon class="cls-4" points="161.09 198.34 158.89 196.14 147.6 207.46 156.7 198.33 161.09 198.34"/><polygon class="cls-4" points="114.86 194.05 119.08 194.07 127.64 202.65 116.96 191.95 114.86 194.05"/><path class="cls-4" d="M213,162.12a18.09,18.09,0,0,1-3.07,4.23l-6.86,6.87-7,7a0.94,0.94,0,0,1-1.34,0l-7-7-6.88-6.89a20.25,20.25,0,0,1-3.08-4.22H60.38v89.06H59.43a16.94,16.94,0,0,0-6.22,1.19l-0.22.08c-0.32.13-.63,0.28-0.94,0.43l-0.46.22c-0.28.15-.56,0.31-0.83,0.47l-0.5.31q-0.39.25-.76,0.51l-0.5.38c-0.23.18-.46,0.36-0.69,0.55l-0.49.45c-0.21.19-.42,0.39-0.62,0.59s-0.33.36-.5,0.55-0.35.38-.52,0.59q-0.46.57-.88,1.17c-0.12.17-.22,0.35-0.33,0.53s-0.33.52-.48,0.8-0.2.39-.3,0.59-0.27.54-.39,0.82-0.17.41-.26,0.62-0.22.57-.32,0.87-0.14.42-.2,0.63-0.17.62-.24,0.93-0.1.41-.14,0.62-0.12.71-.16,1.07c0,0.18-.05.35-0.07,0.53-0.05.54-.08,1.09-0.08,1.64a17.14,17.14,0,0,0,17.1,17.15H227.55V162.12H213Zm-24.43,25.67a0.94,0.94,0,1,1,1.34-1.33l5.53,5.55,5.53-5.55a0.94,0.94,0,1,1,1.34,1.33l-5.54,5.55,5.54,5.55a0.94,0.94,0,1,1-1.34,1.33l-5.53-5.55-5.53,5.55a0.94,0.94,0,1,1-1.34-1.33l5.54-5.55Zm7.81,14.8v4.17a0.94,0.94,0,1,1-1.89,0V202.6A0.94,0.94,0,1,1,196.38,202.6Zm-2.82,12.13-2.94,3a0.94,0.94,0,0,1-1.34-1.34l2.94-3A0.94,0.94,0,0,1,193.57,214.73ZM191,250a11.52,11.52,0,0,1,11.49,11.24,0.92,0.92,0,0,1,0,.28,0.94,0.94,0,0,1-.94.94H180.42a0.94,0.94,0,0,1-.94-0.94A11.52,11.52,0,0,1,191,250ZM180.45,225.2l2.94-3a0.94,0.94,0,1,1,1.34,1.34l-2.94,3A0.94,0.94,0,1,1,180.45,225.2Zm-3.22-51a0.94,0.94,0,0,1-.94.95H71.12a0.94,0.94,0,0,1-.94-0.95,9.31,9.31,0,0,1,.13-0.94h106A0.94,0.94,0,0,1,177.24,174.17Zm-1.34,58.26-2.94,3a0.94,0.94,0,0,1-1.34-1.34l2.94-3A0.94,0.94,0,0,1,175.9,232.44Zm-28.3-25a0.95,0.95,0,0,1-1.34-1.33l12-12a1,1,0,0,1,1.34,0l11.35,11.38a0.95,0.95,0,0,1-1.34,1.33Zm19.46,33.84-2.94,3a0.94,0.94,0,1,1-1.34-1.34l2.94-3A0.94,0.94,0,0,1,167.07,241.29Zm-8.83,1.82a0.94,0.94,0,0,1-1.34,0l-2.95-3a0.94,0.94,0,0,1,1.34-1.34l2.95,3A0.94,0.94,0,0,1,158.24,243.11Zm-33.94-26.45a0.95,0.95,0,0,1-1.34-1.34l12-12a1,1,0,0,1,1.34,0l11.35,11.37a0.94,0.94,0,0,1-1.34,1.34Zm16.27,12.5-2.94,3a0.94,0.94,0,1,1-1.34-1.33l2.94-3A0.94,0.94,0,0,1,140.57,229.17ZM131.74,238l-2.94,3a0.94,0.94,0,0,1-.67.28,0.94,0.94,0,0,1-.67-1.61l2.94-3A0.94,0.94,0,1,1,131.74,238Zm-26.07-34.76a0.94,0.94,0,0,1-1.34-1.33l12-12a1,1,0,0,1,1.34,0L129,201.32a0.94,0.94,0,1,1-1.34,1.33Zm8.4,33.7a0.94,0.94,0,0,1-1.34,0l-2.94-3a0.95,0.95,0,0,1,1.34-1.34l2.94,3A0.94,0.94,0,0,1,114.07,237Zm-8.83-8.86a0.94,0.94,0,0,1-1.34,0l-0.14-.14-1.47,1.47A0.95,0.95,0,1,1,101,228.1l2.13-2.14a1,1,0,0,1,1.34,0l0.81,0.81A0.94,0.94,0,0,1,105.23,228.1Zm13.39,13.42a0.94,0.94,0,0,1,1.34,0l2.94,3a0.95,0.95,0,0,1-1.34,1.34l-2.94-3A0.94,0.94,0,0,1,118.62,241.53ZM145.12,230a0.94,0.94,0,0,1,1.34,0l2.94,3a0.94,0.94,0,1,1-1.34,1.34l-2.94-3A0.94,0.94,0,0,1,145.12,230Zm-58,21a8.7,8.7,0,1,1-2.74-6.28l1.82-1.83a0.95,0.95,0,0,1,1.34,1.34l-1.92,1.92A8.61,8.61,0,0,1,87.14,251Zm-4.53-44.69v5.24a0.94,0.94,0,1,1-1.89,0v-5.24A11.49,11.49,0,1,1,82.61,206.27ZM92.12,237l2.94-3a0.95,0.95,0,0,1,1.34,1.34l-2.94,3A0.95,0.95,0,0,1,92.12,237ZM214.89,272.7a0.94,0.94,0,0,1-.95.94H59.43a0.94,0.94,0,0,1,0-1.89H213V174.17a0.94,0.94,0,0,1,.94-0.94h0a0.94,0.94,0,0,1,.92.94V272.7Z"/><path class="cls-4" d="M214,173.23h0Z"/><polygon class="cls-4" points="135.59 205.35 133.72 207.22 137.45 207.22 135.59 205.35"/><path class="cls-5" d="M195.44,178.2L208.6,165a18.68,18.68,0,0,0,5-12.61A18.2,18.2,0,1,0,182.28,165Zm0-33.83a7.68,7.68,0,1,1-7.66,7.68A7.68,7.68,0,0,1,195.44,144.37Z"/><path class="cls-6" d="M58.49,249.32V126a17.15,17.15,0,0,0-16.16,17.11v117A19,19,0,0,1,58.49,249.32Z"/><path class="cls-6" d="M191,251.91a9.63,9.63,0,0,0-9.56,8.69h19.12A9.63,9.63,0,0,0,191,251.91Z"/><path class="cls-6" d="M81.67,204.43a9.63,9.63,0,1,0-9.6-9.63A9.63,9.63,0,0,0,81.67,204.43Z"/><ellipse class="cls-6" cx="78.51" cy="250.97" rx="6.74" ry="6.76"/><path class="cls-7" d="M78.51,259.62a8.65,8.65,0,0,0,7.14-13.5l1.92-1.92a0.95,0.95,0,0,0-1.34-1.34l-1.82,1.83A8.63,8.63,0,1,0,78.51,259.62Zm0-15.41A6.76,6.76,0,1,1,71.77,251,6.76,6.76,0,0,1,78.51,244.21Z"/><path class="cls-7" d="M213,271.75H59.43a0.95,0.95,0,0,0,0,1.89H213.94a0.94,0.94,0,0,0,.95-0.94V174.17a0.94,0.94,0,0,0-.92-0.94h0a0.94,0.94,0,0,0-.94.94v97.58Z"/><path class="cls-7" d="M70.18,174.17a0.94,0.94,0,0,0,.94.95H176.29a0.95,0.95,0,1,0,0-1.89H71.12A0.94,0.94,0,0,0,70.18,174.17Z"/><path class="cls-7" d="M213.9,160.23a20.73,20.73,0,0,0,1.63-7.82,20.09,20.09,0,1,0-38.6,7.82H60.38V124.05H59.43a19,19,0,0,0-19,19V268.32a19.08,19.08,0,0,0,19,19h170V160.23H213.9Zm-18.46-26.08a18.25,18.25,0,0,1,18.2,18.25,18.68,18.68,0,0,1-5,12.61L195.44,178.2,182.28,165A18.26,18.26,0,0,1,195.44,134.15ZM42.33,143.08A17.15,17.15,0,0,1,58.49,126V249.32a19,19,0,0,0-16.16,10.73v-117ZM227.55,285.47H59.43a17.14,17.14,0,0,1-17.1-17.15c0-.55,0-1.1.08-1.64,0-.18,0-0.35.07-0.53,0-.36.1-0.72,0.16-1.07s0.09-.41.14-0.62,0.15-.63.24-0.93,0.13-.42.2-0.63,0.2-.58.32-0.87,0.17-.42.26-0.62,0.26-.55.39-0.82,0.2-.4.3-0.59,0.32-.53.48-0.8,0.22-.36.33-0.53q0.41-.61.88-1.17c0.16-.2.34-0.39,0.52-0.59s0.32-.37.5-0.55,0.41-.4.62-0.59l0.49-.45c0.22-.19.45-0.37,0.69-0.55l0.5-.38q0.37-.27.76-0.51l0.5-.31c0.27-.16.55-0.32,0.83-0.47l0.46-.22c0.31-.15.62-0.3,0.94-0.43l0.22-.08a16.94,16.94,0,0,1,6.22-1.19h0.94V162.12H177.85a20.25,20.25,0,0,0,3.08,4.22l6.88,6.89,7,7a0.94,0.94,0,0,0,1.34,0l7-7,6.86-6.87a18.09,18.09,0,0,0,3.07-4.23h14.54V285.47Z"/><path class="cls-7" d="M195.44,159.73a7.68,7.68,0,1,0-7.66-7.68A7.68,7.68,0,0,0,195.44,159.73Zm0-13.47a5.79,5.79,0,1,1-5.77,5.79A5.79,5.79,0,0,1,195.44,146.26Z"/><path class="cls-7" d="M188.57,200.23a0.94,0.94,0,0,0,1.34,0l5.53-5.55,5.53,5.55a0.94,0.94,0,1,0,1.34-1.33l-5.54-5.55,5.54-5.55a0.94,0.94,0,1,0-1.34-1.33L195.44,192l-5.53-5.55a0.94,0.94,0,1,0-1.34,1.33l5.54,5.55-5.54,5.55A0.94,0.94,0,0,0,188.57,200.23Z"/><path class="cls-7" d="M180.42,262.49h21.14a0.94,0.94,0,0,0,.94-0.94,0.92,0.92,0,0,0,0-.28,11.49,11.49,0,0,0-23,.28A0.94,0.94,0,0,0,180.42,262.49ZM191,251.91a9.63,9.63,0,0,1,9.56,8.69H181.41A9.63,9.63,0,0,1,191,251.91Z"/><path class="cls-7" d="M80.72,206.27v5.24a0.94,0.94,0,1,0,1.89,0v-5.24A11.49,11.49,0,1,0,80.72,206.27Zm0.94-21.1a9.63,9.63,0,1,1-9.6,9.63A9.63,9.63,0,0,1,81.67,185.17Z"/><path class="cls-7" d="M105,203.54a0.94,0.94,0,0,0,.67-0.28l9.19-9.21,2.1-2.11,10.68,10.7a0.94,0.94,0,1,0,1.34-1.33l-11.35-11.38a1,1,0,0,0-1.34,0l-12,12A0.94,0.94,0,0,0,105,203.54Z"/><path class="cls-7" d="M123,216.67a0.95,0.95,0,0,0,1.34,0l9.43-9.45,1.87-1.87,1.87,1.87h0l8.81,8.84a0.94,0.94,0,0,0,1.34-1.34l-11.35-11.37a1,1,0,0,0-1.34,0l-12,12A1,1,0,0,0,123,216.67Z"/><path class="cls-7" d="M146.93,207.73a0.94,0.94,0,0,0,.67-0.28l11.29-11.32,2.2,2.21,8.48,8.5a0.95,0.95,0,0,0,1.34-1.33l-11.35-11.38a1,1,0,0,0-1.34,0l-12,12A0.95,0.95,0,0,0,146.93,207.73Z"/><path class="cls-7" d="M165.73,240l-2.94,3a0.94,0.94,0,1,0,1.34,1.34l2.94-3A0.94,0.94,0,0,0,165.73,240Z"/><path class="cls-7" d="M181.12,226.81a0.94,0.94,0,0,0,.67-0.28l2.94-3a0.94,0.94,0,1,0-1.34-1.34l-2.94,3A0.95,0.95,0,0,0,181.12,226.81Z"/><path class="cls-7" d="M154,238.82a0.94,0.94,0,0,0,0,1.34l2.95,3a0.94,0.94,0,1,0,1.34-1.34l-2.95-3A0.94,0.94,0,0,0,154,238.82Z"/><path class="cls-7" d="M172.29,235.66a0.94,0.94,0,0,0,.67-0.28l2.94-3a0.94,0.94,0,0,0-1.34-1.34l-2.94,3A0.95,0.95,0,0,0,172.29,235.66Z"/><path class="cls-7" d="M194.49,202.6v4.17a0.94,0.94,0,1,0,1.89,0V202.6A0.94,0.94,0,1,0,194.49,202.6Z"/><path class="cls-7" d="M92.12,238.29a0.94,0.94,0,0,0,1.34,0l2.94-3A0.95,0.95,0,0,0,95.06,234l-2.94,3A0.94,0.94,0,0,0,92.12,238.29Z"/><path class="cls-7" d="M192.23,213.39l-2.94,3a0.94,0.94,0,0,0,1.34,1.34l2.94-3A0.94,0.94,0,0,0,192.23,213.39Z"/><path class="cls-7" d="M120,241.53a0.95,0.95,0,0,0-1.34,1.34l2.94,3a0.95,0.95,0,0,0,1.34-1.34Z"/><path class="cls-7" d="M139.23,227.84l-2.94,3a0.94,0.94,0,1,0,1.34,1.33l2.94-3A0.94,0.94,0,0,0,139.23,227.84Z"/><path class="cls-7" d="M145.12,230a0.94,0.94,0,0,0,0,1.34l2.94,3a0.94,0.94,0,0,0,1.34-1.34l-2.94-3A0.94,0.94,0,0,0,145.12,230Z"/><path class="cls-7" d="M109.79,232.67a0.94,0.94,0,0,0,0,1.34l2.94,3a0.95,0.95,0,0,0,1.34-1.34l-2.94-3A0.94,0.94,0,0,0,109.79,232.67Z"/><path class="cls-7" d="M130.4,236.69l-2.94,3a0.94,0.94,0,0,0,.67,1.61,0.94,0.94,0,0,0,.67-0.28l2.94-3A0.94,0.94,0,1,0,130.4,236.69Z"/><path class="cls-7" d="M101.62,229.71a0.94,0.94,0,0,0,.67-0.28l1.47-1.47,0.14,0.14a0.94,0.94,0,1,0,1.34-1.34l-0.81-.81a1,1,0,0,0-1.34,0L101,228.1A0.94,0.94,0,0,0,101.62,229.71Z"/><polygon class="cls-6" points="114.86 194.05 105.67 203.26 127.64 202.65 119.08 194.07 114.86 194.05"/><polygon class="cls-6" points="137.45 207.22 133.72 207.22 124.29 216.67 146.26 216.05 137.45 207.22 137.45 207.22"/><polygon class="cls-6" points="156.7 198.33 147.6 207.46 169.57 206.84 161.09 198.34 156.7 198.33"/><path class="cls-8" d="M99.16,98.5c-5-2-7.31-4.25-7.75-5.38V92a11.27,11.27,0,0,0,2.24-4.26,3.55,3.55,0,0,0,.6-4.58V79.78c0-4.56-2.74-7.17-7.51-7.17s-7.51,2.68-7.51,7.17v3.36a3.55,3.55,0,0,0,.6,4.58A11.25,11.25,0,0,0,82.06,92v1.15c-0.44,1.13-2.8,3.4-7.76,5.38a2,2,0,0,0-1.25,1.87v1.71a0.86,0.86,0,1,0,1.71,0v-1.71a0.3,0.3,0,0,1,.17-0.28c4.7-1.88,8.15-4.46,8.79-6.58a0.85,0.85,0,0,0,0-.25V91.64a0.86,0.86,0,0,0-.23-0.59A9.48,9.48,0,0,1,81.39,87a0.85,0.85,0,0,0-.32-0.47,1.78,1.78,0,0,1-.7-1.2,1.83,1.83,0,0,1,.38-1.39,0.86,0.86,0,0,0,.18-0.53V79.78c0-3.52,2.06-5.46,5.8-5.46s5.8,1.84,5.8,5.46v3.63a0.85,0.85,0,0,0,.18.53,1.83,1.83,0,0,1,.38,1.39,1.78,1.78,0,0,1-.7,1.2,0.85,0.85,0,0,0-.32.47,9.5,9.5,0,0,1-2.14,4.06,0.85,0.85,0,0,0-.23.59v1.62a0.86,0.86,0,0,0,0,.25c0.64,2.12,4.09,4.7,8.79,6.58a0.3,0.3,0,0,1,.17.28v1.71a0.86,0.86,0,1,0,1.71,0v-1.71A2,2,0,0,0,99.16,98.5Z"/><path class="cls-8" d="M105.46,62.33H97.72a8.71,8.71,0,0,0-8.37,7.58,0.86,0.86,0,0,0,1.69.28A7,7,0,0,1,97.72,64h7.74c3.74,0,6.79,3.37,6.79,7.5a7.32,7.32,0,0,1-5.61,7.39,0.85,0.85,0,0,0-.39.19l-5.85,4.93V80.14a0.86,0.86,0,0,0-.86-0.86H97.5a0.86,0.86,0,0,0,0,1.71h1.2v4.9a0.85,0.85,0,0,0,1.41.65l7.09-6a9.06,9.06,0,0,0,6.77-9C114,66.46,110.15,62.33,105.46,62.33Z"/><path class="cls-8" d="M96.26,70.74h10a0.86,0.86,0,0,0,0-1.71h-10A0.86,0.86,0,1,0,96.26,70.74Z"/><path class="cls-8" d="M96.26,74.16h5a0.86,0.86,0,1,0,0-1.71h-5A0.86,0.86,0,1,0,96.26,74.16Z"/><path class="cls-8" d="M182.44,62.53l-5,2.33-3.06-3.21a0.73,0.73,0,0,0-.6-0.23,0.75,0.75,0,0,0-.56.32l-3.33,4.7-2.2-7.14a0.75,0.75,0,0,0-.67-0.53,0.74,0.74,0,0,0-.73.44l-4.75,10.6L158,67.3a0.75,0.75,0,1,0-.87,1.23l4.3,3a0.75,0.75,0,0,0,.43.14l0.2,0a0.75,0.75,0,0,0,.49-0.42l4.31-9.61,2.06,6.69a0.75,0.75,0,0,0,1.33.21l3.68-5.21,2.8,2.94a0.75,0.75,0,0,0,.86.16l5.48-2.56A0.75,0.75,0,0,0,182.44,62.53Z"/><path class="cls-8" d="M187.31,45.59H152.79a0.75,0.75,0,0,0-.75.75V77.86a0.75,0.75,0,0,0,.75.75h34.52a0.75,0.75,0,0,0,.75-0.75V46.34A0.75,0.75,0,0,0,187.31,45.59Zm-0.75,1.5v4.5h-33V47.1h33Zm-33,30v-24h33v24h-33Z"/><path class="cls-8" d="M155.79,50.1a0.74,0.74,0,0,0,.54-0.23,0.75,0.75,0,0,0,.21-0.52,0.76,0.76,0,0,0-.22-0.54,0.77,0.77,0,0,0-1.07,0,0.75,0.75,0,0,0-.21.53A0.77,0.77,0,0,0,155.79,50.1Z"/><path class="cls-8" d="M158.79,50.1a0.74,0.74,0,0,0,.54-0.23,0.75,0.75,0,0,0,.21-0.52,0.76,0.76,0,0,0-.22-0.54,0.77,0.77,0,0,0-1.07,0,0.75,0.75,0,0,0-.21.53A0.77,0.77,0,0,0,158.79,50.1Z"/><path class="cls-8" d="M161.79,50.1a0.74,0.74,0,0,0,.54-0.23,0.75,0.75,0,0,0,.21-0.52,0.76,0.76,0,0,0-.22-0.54,0.77,0.77,0,0,0-1.07,0,0.75,0.75,0,0,0-.21.53A0.77,0.77,0,0,0,161.79,50.1Z"/><path class="cls-8" d="M256.5,90.75a2.7,2.7,0,0,0-3.67-2.46,2.54,2.54,0,0,0-.89-1.93,3,3,0,0,0-3.06-.4,2.49,2.49,0,0,0-.61-0.76,3,3,0,0,0-2.77-.5V80.14a2.55,2.55,0,0,0-.9-2c-1.47-1.24-4.59-.62-4.59,2v11.8a5.77,5.77,0,0,0-2.49-2.53,2.41,2.41,0,0,0-2.14.17,2,2,0,0,0-1,1.36c-0.53,2.47,2.62,7.3,6.1,12.16l0.59,0.83a0.91,0.91,0,1,0,1.49-1L242,102c-4.14-5.77-6.09-9.37-5.8-10.71a0.2,0.2,0,0,1,.1-0.17,0.58,0.58,0,0,1,.56-0.05c1.19,0.47,2.59,3.51,3.2,5.52a0.91,0.91,0,0,0,1.78-.27V80.14a0.84,0.84,0,0,1,.92-0.82,1.05,1.05,0,0,1,.67.22,0.74,0.74,0,0,1,.25.6V91.43a0.91,0.91,0,1,0,1.82,0V87.2a0.84,0.84,0,0,1,.92-0.82,1.06,1.06,0,0,1,.67.22,0.73,0.73,0,0,1,.25.6V92a0.91,0.91,0,1,0,1.82,0V88.36a0.84,0.84,0,0,1,.92-0.82,1.06,1.06,0,0,1,.67.22,0.73,0.73,0,0,1,.25.6v4.27a0.91,0.91,0,0,0,1.82,0V90.75a0.84,0.84,0,0,1,.92-0.82,0.85,0.85,0,0,1,.92.86,36.69,36.69,0,0,1-1.89,12.31,0.91,0.91,0,0,0,.55,1.17,0.93,0.93,0,0,0,.31.05,0.91,0.91,0,0,0,.86-0.6A38,38,0,0,0,256.5,90.75Z"/><path class="cls-8" d="M233.9,66.92a2.88,2.88,0,0,0,2-4.91,3,3,0,0,0-4.07,0A2.88,2.88,0,0,0,233.9,66.92Zm-0.74-3.62a1.05,1.05,0,1,1,1.49,1.49,1.07,1.07,0,0,1-1.49,0A1.06,1.06,0,0,1,233.15,63.3Z"/><path class="cls-8" d="M242.63,66.92a2.88,2.88,0,0,0,2-4.91,3,3,0,0,0-4.07,0A2.88,2.88,0,0,0,242.63,66.92Zm-0.74-3.62a1.05,1.05,0,1,1,1.49,1.49,1.07,1.07,0,0,1-1.49,0A1.05,1.05,0,0,1,241.89,63.3Z"/><path class="cls-8" d="M251.37,66.92a2.88,2.88,0,0,0,2-4.91,3,3,0,0,0-4.07,0A2.88,2.88,0,0,0,251.37,66.92Zm-0.74-3.62a1.05,1.05,0,1,1,1.49,1.49,1.07,1.07,0,0,1-1.49,0A1.05,1.05,0,0,1,250.63,63.3Z"/><path class="cls-8" d="M233.9,74.8a2.88,2.88,0,0,0,2-4.91,3,3,0,0,0-4.07,0A2.88,2.88,0,0,0,233.9,74.8Zm-0.74-3.62a1.05,1.05,0,1,1,1.49,1.49,1.07,1.07,0,0,1-1.49,0A1.06,1.06,0,0,1,233.15,71.18Z"/><path class="cls-8" d="M242.63,74.8a2.88,2.88,0,0,0,2-4.91,3,3,0,0,0-4.07,0A2.88,2.88,0,0,0,242.63,74.8Zm-0.74-3.62a1.05,1.05,0,1,1,1.49,1.49,1.07,1.07,0,0,1-1.49,0A1.05,1.05,0,0,1,241.89,71.18Z"/><path class="cls-8" d="M251.37,74.8a2.88,2.88,0,0,0,2-4.91,3,3,0,0,0-4.07,0A2.88,2.88,0,0,0,251.37,74.8Zm-0.74-3.62a1.05,1.05,0,1,1,1.49,1.49,1.07,1.07,0,0,1-1.49,0A1.05,1.05,0,0,1,250.63,71.18Z"/><path class="cls-8" d="M236.77,79.8a2.85,2.85,0,0,0-.84-2,3,3,0,0,0-4.07,0A2.88,2.88,0,1,0,236.77,79.8Zm-2.13.75a1.07,1.07,0,0,1-1.49,0,1.06,1.06,0,0,1,0-1.49A1.05,1.05,0,1,1,234.64,80.55Z"/><path class="cls-8" d="M251.37,82.68a2.88,2.88,0,0,0,2-4.91,3,3,0,0,0-4.07,0A2.88,2.88,0,0,0,251.37,82.68Zm-0.74-3.62a1.05,1.05,0,1,1,1.49,1.49,1.07,1.07,0,0,1-1.49,0A1.05,1.05,0,0,1,250.63,79.06Z"/><path class="cls-8" d="M314.2,128.59H281.27a0.72,0.72,0,0,0-.72.72v30.07a0.72,0.72,0,0,0,.72.72H314.2a0.72,0.72,0,0,0,.72-0.72V129.31A0.72,0.72,0,0,0,314.2,128.59ZM313.49,130v7.16H282V130h31.5ZM282,158.66v-20h31.5v20H282Z"/><path class="cls-8" d="M307.9,135.55a0.72,0.72,0,0,0,1,0l0.93-1,0.93,1a0.72,0.72,0,0,0,1-1l-1-1,1-1a0.72,0.72,0,0,0-1-1l-0.93,1-0.93-1a0.72,0.72,0,1,0-1,1l1,1-1,1A0.72,0.72,0,0,0,307.9,135.55Z"/><path class="cls-8" d="M302.73,135.75h2.86a0.72,0.72,0,0,0,.72-0.72v-2.86a0.72,0.72,0,0,0-.72-0.72h-2.86a0.72,0.72,0,0,0-.72.72V135A0.72,0.72,0,0,0,302.73,135.75Zm0.72-2.86h1.43v1.43h-1.43v-1.43Z"/><path class="cls-8" d="M297,135.75h2.86a0.72,0.72,0,1,0,0-1.43H297A0.72,0.72,0,0,0,297,135.75Z"/><path class="cls-8" d="M301.29,152.94h-7a0.72,0.72,0,0,0,0,1.43h7A0.72,0.72,0,0,0,301.29,152.94Z"/><path class="cls-8" d="M287.69,141.72a0.72,0.72,0,0,0-1.08.94l4.58,5.26-4.58,5.26a0.72,0.72,0,0,0,1.08.94l5-5.73a0.72,0.72,0,0,0,0-.94Z"/></svg>