<?xml version="1.0" encoding="UTF-8" standalone="no"?>
<svg width="24px" height="24px" viewBox="0 0 24 24" version="1.1" xmlns="http://www.w3.org/2000/svg" xmlns:xlink="http://www.w3.org/1999/xlink">
    <!-- Generator: Sketch 3.6.1 (26313) - http://www.bohemiancoding.com/sketch -->
    <title>icon-4</title>
    <desc>Created with Sketch.</desc>
    <defs></defs>
    <g id="Page-1" stroke="none" stroke-width="1" fill="none" fill-rule="evenodd">
        <g id="EnterpriseLandingFinal2" transform="translate(-151.000000, -3057.000000)" fill="#F09233">
            <g id="Drawer" transform="translate(136.000000, 3057.000000)">
                <g id="Copy">
                    <g id="Group-2">
                        <g id="icon-4" transform="translate(15.000000, 0.000000)">
                            <g id="Layer_1">
                                <path d="M6.79,12 L14.19,12 C14.626305,12 14.98,11.646305 14.98,11.21 L14.98,10.21 C14.9850137,9.88288534 14.7853623,9.58740115 14.48,9.47 C13.5995798,9.18171675 12.7568993,8.7889135 11.97,8.3 L11.97,8.21 C12.2102782,7.91291976 12.3933744,7.57385268 12.51,7.21 C12.6889065,7.03178396 12.8047711,6.80005484 12.84,6.55 C12.8754274,6.29787809 12.8261875,6.04112727 12.7,5.82 L12.7,5.05 C12.7262268,4.46926445 12.4984789,3.90585443 12.0760592,3.50647584 C11.6536395,3.10709726 11.0783537,2.91127533 10.5,2.97 C9.92164627,2.91127533 9.34636045,3.10709726 8.9239408,3.50647584 C8.50152114,3.90585443 8.27377316,4.46926445 8.3,5.05 L8.3,5.81 C8.17381249,6.03112727 8.12457261,6.28787809 8.16,6.54 C8.19522892,6.79005484 8.31109348,7.02178396 8.49,7.2 C8.60683858,7.56376191 8.78991451,7.90279142 9.03,8.2 L9.03,8.26 C8.25219744,8.77048875 7.40752824,9.17094945 6.52,9.45 C6.21463774,9.56740115 6.01498626,9.86288534 6.02,10.19 L6.02,11.19 C6.014628,11.3995399 6.09275027,11.6026251 6.23716747,11.7545445 C6.38158468,11.9064639 6.58045669,11.9947623 6.79,12 L6.79,12 Z M7.01,10.34 C9.57,9.34 9.89,8.91 10.01,8.57 C10.0176984,8.52029633 10.0176984,8.46970367 10.01,8.42 L10.01,8.02 C10.0107837,7.88953619 9.96054257,7.76393328 9.87,7.67 C9.63989702,7.41685813 9.47512036,7.11133474 9.39,6.78 C9.35647531,6.66962357 9.28581659,6.57423429 9.19,6.51 C9.15883786,6.47985592 9.14124298,6.43835602 9.14124298,6.395 C9.14124298,6.35164398 9.15883786,6.31014408 9.19,6.28 C9.26058029,6.19203036 9.2993458,6.08278212 9.3,5.97 L9.3,5.05 C9.26769281,4.73261193 9.38876276,4.4188569 9.6258945,4.20543833 C9.86302624,3.99201977 10.1877568,3.90455433 10.5,3.97 C10.8122432,3.90455433 11.1369738,3.99201977 11.3741055,4.20543833 C11.6112372,4.4188569 11.7323072,4.73261193 11.7,5.05 L11.7,5.96 C11.7006542,6.07278212 11.7394197,6.18203036 11.81,6.27 C11.825568,6.30848523 11.825568,6.35151477 11.81,6.39 C11.8043068,6.43006172 11.7826694,6.46612398 11.75,6.49 C11.6579228,6.55589125 11.5909358,6.6510833 11.56,6.76 C11.4752607,7.09148374 11.3104368,7.39709469 11.08,7.65 C10.9894574,7.74393328 10.9392163,7.86953619 10.94,8 L10.94,8.41 C10.9323016,8.45970367 10.9323016,8.51029633 10.94,8.56 C11.07,8.99 11.61,9.42 13.94,10.33 L13.94,10.99 L6.94,10.99 L6.94,10.34 L7.01,10.34 Z" id="Shape"></path>
                                <path d="M13.88,8.48 C14.0721068,8.61503876 14.3323003,8.59819983 14.5053989,8.4395261 C14.6784975,8.28085236 14.7178558,8.02310221 14.6,7.82 C14.5748686,7.43707857 14.5748686,7.05292143 14.6,6.67 C14.6,6.35 14.69,5.99 15.42,5.99 C16.15,5.99 16.19,6.33 16.19,6.68 C16.2150387,7.05958754 16.2150387,7.44041246 16.19,7.82 C16.1861109,7.85656354 16.1861109,7.89343646 16.19,7.93 C16.1288213,8.15830761 16.0120046,8.36789045 15.85,8.54 C15.7557929,8.63231523 15.7018785,8.75811537 15.7,8.89 L15.7,9.21 C15.6924573,9.25971554 15.6924573,9.31028446 15.7,9.36 C15.82,9.72 16.22,10.05 18,10.73 L18,11.01 L16.3,11.01 C16.0238576,11.01 15.8,11.2338576 15.8,11.51 C15.8,11.7861424 16.0238576,12.01 16.3,12.01 L18.3,12.01 C18.697645,12.01 19.02,11.687645 19.02,11.29 L19.02,10.52 C19.0194159,10.2232031 18.8367706,9.95717629 18.56,9.85 C17.9283229,9.62768258 17.3134109,9.36032952 16.72,9.05 C16.8904576,8.83054431 17.0223389,8.58368944 17.11,8.32 C17.2649319,7.78375735 17.2923278,7.21871585 17.19,6.67 C17.2078964,6.19404867 17.0167255,5.73407984 16.6667476,5.41102338 C16.3167698,5.08796693 15.8430013,4.93414546 15.37,4.99 C14.8980484,4.9309251 14.4239805,5.08223887 14.0735245,5.40381112 C13.7230685,5.72538337 13.531637,6.18472017 13.55,6.66 C13.53,8.21 13.69,8.35 13.88,8.48 L13.88,8.48 Z" id="Shape"></path>
                                <path d="M15.61,19.68 C15.3536439,19.7208521 15.1711899,19.9510917 15.19,20.21 L15.65,22.99 L8.35,22.99 L8.8,20.21 C8.84418278,19.9338576 8.65614237,19.6741828 8.38,19.63 C8.10385763,19.5858172 7.84418278,19.7738576 7.8,20.05 L7.31,23.05 C7.32284866,23.3012709 7.43589191,23.5369033 7.62383575,23.7041733 C7.81177958,23.8714433 8.0589351,23.9563878 8.31,23.94 L15.69,23.94 C16.2422847,23.94 16.69,23.4922847 16.69,22.94 L16.21,19.94 C16.1022424,19.7164375 15.8468097,19.6057499 15.61,19.68 L15.61,19.68 Z" id="Shape"></path>
                                <path d="M21.87,-2.22872434e-13 L2.12,-2.22872434e-13 C1.55434885,-0.00544550369 1.01042228,0.21754214 0.611370251,0.618476494 C0.212318218,1.01941085 -0.00810731644,1.56438074 2.29927188e-13,2.13 L2.29927188e-13,15.86 C-0.00265839962,16.424913 0.219206115,16.967744 0.616784581,17.3690732 C1.01436305,17.7704024 1.55508694,17.9973541 2.12,18 L21.87,18 C22.436648,18.0000062 22.9799428,17.774224 23.379684,17.3726061 C23.7794252,16.9709882 24.0026603,16.4266418 24,15.86 L24,2.13 C24.0053961,1.56345188 23.7827192,1.01853718 23.382091,0.617908994 C22.9814628,0.217280808 22.4365481,-0.00539606462 21.87,-2.23760599e-13 L21.87,-2.22872434e-13 Z M2.12,1 L21.87,1 C22.1705128,0.997304655 22.4595014,1.11549216 22.6720046,1.32799536 C22.8845078,1.54049856 23.0026953,1.82948718 23,2.13 L23,14 L1,14 L1,2.13 C0.997332292,1.83122868 1.11415321,1.54377655 1.3244838,1.33156801 C1.53481438,1.11935948 1.82121677,0.99998809 2.12,1 L2.12,1 Z M21.87,17 L2.12,17 C1.81945961,17.0000479 1.53150986,16.8793068 1.32088461,16.6649204 C1.11025937,16.450534 0.994633203,16.1604925 1,15.86 L1,15 L23,15 L23,15.86 C23.0054104,16.1622347 22.8884229,16.4538234 22.6756201,16.6685094 C22.4628173,16.8831954 22.1722707,17.0027474 21.87,17 L21.87,17 Z" id="Shape"></path>
                            </g>
                        </g>
                    </g>
                </g>
            </g>
        </g>
    </g>
</svg>