<svg id="Layer_1" data-name="Layer 1" xmlns="http://www.w3.org/2000/svg" viewBox="0 0 18.09 23.67"><defs><style>.cls-1{fill:#f09233;}</style></defs><title>icon-3</title><path class="cls-1" d="M25.22,15.63H23.81v-4a5,5,0,0,0-10,0v4H12.4a2.62,2.62,0,0,0-2.63,2.64L10.71,28a2.62,2.62,0,0,0,2.63,2.6H24.28a2.62,2.62,0,0,0,2.63-2.57l0.95-9.84A2.58,2.58,0,0,0,25.22,15.63Zm-10.41-4a4,4,0,0,1,8,0v4h-8v-4ZM25.91,28a1.63,1.63,0,0,1-1.63,1.62H13.34A1.61,1.61,0,0,1,11.71,28l-0.94-9.76a1.6,1.6,0,0,1,1.63-1.59H25.22a1.59,1.59,0,0,1,1.63,1.54Z" transform="translate(-9.77 -6.97)"/><path class="cls-1" d="M18.81,20.69a2,2,0,0,0-2,2.05L17.2,26.2a0.5,0.5,0,0,0,.5.44h2.23a0.5,0.5,0,0,0,.5-0.44l0.42-3.53A2,2,0,0,0,18.81,20.69Zm0.67,4.95H18.14l-0.36-3a1,1,0,0,1,1-1,1,1,0,0,1,1,.92Z" transform="translate(-9.77 -6.97)"/></svg>